<svg aria-hidden="true" class="icon" viewBox="0 0 24 24" fill="none" xmlns="http://www.w3.org/2000/svg">
    <path fill-rule="evenodd" clip-rule="evenodd"
        d="M24 12C24 18.6274 18.6274 24 12 24C5.37258 24 0 18.6274 0 12C0 5.37258 5.37258 0 12 0C18.6274 0 24 5.37258 24 12ZM8 17H16V9C16 7.89543 15.1046 7 14 7H8V17ZM7 5C6.44772 5 6 5.44772 6 6V18C6 18.5523 6.44771 19 7 19H17C17.5523 19 18 18.5523 18 18V9C18 6.79086 16.2091 5 14 5H7ZM9.5 8C9.22386 8 9 8.22386 9 8.5C9 8.77614 9.22386 9 9.5 9H14.5C14.7761 9 15 8.77614 15 8.5C15 8.22386 14.7761 8 14.5 8H9.5ZM9 10.5C9 10.2239 9.22386 10 9.5 10H14.5C14.7761 10 15 10.2239 15 10.5C15 10.7761 14.7761 11 14.5 11H9.5C9.22386 11 9 10.7761 9 10.5ZM9.5 12C9.22386 12 9 12.2239 9 12.5C9 12.7761 9.22386 13 9.5 13H14.5C14.7761 13 15 12.7761 15 12.5C15 12.2239 14.7761 12 14.5 12H9.5Z"
        fill="var(--icon-fill, black)" />
</svg>