<svg aria-hidden="true" class="icon" viewBox="0 0 24 24" fill="none" xmlns="http://www.w3.org/2000/svg">

    <mask id="path-1-inside-1_41_34">
        <path fill-rule="evenodd" clip-rule="evenodd"
            d="M12 24C18.6274 24 24 18.6274 24 12C24 5.37258 18.6274 0 12 0C5.37258 0 0 5.37258 0 12C0 18.6274 5.37258 24 12 24ZM3 12.2276C3 7.12937 7.0275 3 12 3C16.9725 3 21 7.12937 21 12.2276C20.9997 14.1611 20.4079 16.0458 19.308 17.6163C18.2081 19.1868 16.6555 20.3641 14.8688 20.9824C14.4187 21.0746 14.25 20.7863 14.25 20.5441C14.25 20.4399 14.2513 20.2597 14.2529 20.0198C14.2563 19.5422 14.2613 18.828 14.2613 18.0065C14.2613 17.1414 13.98 16.5877 13.6538 16.2993C15.6562 16.0687 17.76 15.2843 17.76 11.7432C17.76 10.7282 17.4113 9.9092 16.8375 9.26326C16.9275 9.03257 17.2425 8.08674 16.7475 6.81794C16.7475 6.81794 15.9938 6.56418 14.2725 7.76377C13.5525 7.55615 12.7875 7.45234 12.0225 7.45234C11.2575 7.45234 10.4925 7.55615 9.7725 7.76377C8.05125 6.57571 7.2975 6.81794 7.2975 6.81794C6.8025 8.08674 7.1175 9.03257 7.2075 9.26326C6.63375 9.9092 6.285 10.7397 6.285 11.7432C6.285 15.2728 8.3775 16.0687 10.38 16.2993C10.1213 16.53 9.885 16.9337 9.80625 17.5335C9.28875 17.7758 7.995 18.1679 7.185 16.7723C7.01625 16.4954 6.51 15.8149 5.80125 15.8264C5.0475 15.838 5.4975 16.2647 5.8125 16.4378C6.195 16.6569 6.63375 17.4759 6.735 17.7412C6.915 18.2602 7.5 19.2522 9.76125 18.8254C9.76125 19.3297 9.76604 19.8143 9.76937 20.1511C9.77114 20.3305 9.7725 20.4679 9.7725 20.5441C9.7725 20.7863 9.60375 21.0631 9.15375 20.9824C5.57625 19.7597 3 16.3109 3 12.2276Z" />
    </mask>
    <path fill-rule="evenodd" clip-rule="evenodd"
        d="M12 24C18.6274 24 24 18.6274 24 12C24 5.37258 18.6274 0 12 0C5.37258 0 0 5.37258 0 12C0 18.6274 5.37258 24 12 24ZM3 12.2276C3 7.12937 7.0275 3 12 3C16.9725 3 21 7.12937 21 12.2276C20.9997 14.1611 20.4079 16.0458 19.308 17.6163C18.2081 19.1868 16.6555 20.3641 14.8688 20.9824C14.4187 21.0746 14.25 20.7863 14.25 20.5441C14.25 20.4399 14.2513 20.2597 14.2529 20.0198C14.2563 19.5422 14.2613 18.828 14.2613 18.0065C14.2613 17.1414 13.98 16.5877 13.6538 16.2993C15.6562 16.0687 17.76 15.2843 17.76 11.7432C17.76 10.7282 17.4113 9.9092 16.8375 9.26326C16.9275 9.03257 17.2425 8.08674 16.7475 6.81794C16.7475 6.81794 15.9938 6.56418 14.2725 7.76377C13.5525 7.55615 12.7875 7.45234 12.0225 7.45234C11.2575 7.45234 10.4925 7.55615 9.7725 7.76377C8.05125 6.57571 7.2975 6.81794 7.2975 6.81794C6.8025 8.08674 7.1175 9.03257 7.2075 9.26326C6.63375 9.9092 6.285 10.7397 6.285 11.7432C6.285 15.2728 8.3775 16.0687 10.38 16.2993C10.1213 16.53 9.885 16.9337 9.80625 17.5335C9.28875 17.7758 7.995 18.1679 7.185 16.7723C7.01625 16.4954 6.51 15.8149 5.80125 15.8264C5.0475 15.838 5.4975 16.2647 5.8125 16.4378C6.195 16.6569 6.63375 17.4759 6.735 17.7412C6.915 18.2602 7.5 19.2522 9.76125 18.8254C9.76125 19.3297 9.76604 19.8143 9.76937 20.1511C9.77114 20.3305 9.7725 20.4679 9.7725 20.5441C9.7725 20.7863 9.60375 21.0631 9.15375 20.9824C5.57625 19.7597 3 16.3109 3 12.2276Z"
        fill="var(--icon-fill, black)" />
    <path
        d="M21 12.2276L24 12.2281V12.2276H21ZM19.308 17.6163L21.7653 19.3372L21.7653 19.3372L19.308 17.6163ZM14.8688 20.9824L15.4714 23.9212L15.664 23.8817L15.8498 23.8174L14.8688 20.9824ZM14.2529 20.0198L17.2529 20.0407L17.2529 20.0407L14.2529 20.0198ZM13.6538 16.2993L13.3104 13.3191L6.62353 14.0894L11.667 18.5472L13.6538 16.2993ZM16.8375 9.26326L14.0427 8.1729L13.3755 9.88308L14.5946 11.2556L16.8375 9.26326ZM16.7475 6.81794L19.5423 5.72758L19.033 4.42192L17.7047 3.97474L16.7475 6.81794ZM14.2725 7.76377L13.4413 10.6463L14.8149 11.0424L15.9878 10.225L14.2725 7.76377ZM9.7725 7.76377L8.06834 10.2327L9.23806 11.0401L10.6037 10.6463L9.7725 7.76377ZM7.2975 6.81794L6.37965 3.9618L5.02124 4.39833L4.50266 5.72758L7.2975 6.81794ZM7.2075 9.26326L9.45044 11.2556L10.6695 9.88308L10.0023 8.1729L7.2075 9.26326ZM10.38 16.2993L12.3764 18.5386L17.3717 14.085L10.7233 13.3191L10.38 16.2993ZM9.80625 17.5335L11.078 20.2506L12.5667 19.5538L12.7807 17.9241L9.80625 17.5335ZM7.185 16.7723L9.77969 15.2664L9.76344 15.2384L9.74659 15.2108L7.185 16.7723ZM5.80125 15.8264L5.84715 18.8261L5.85006 18.826L5.80125 15.8264ZM5.8125 16.4378L7.30392 13.8347L7.28046 13.8213L7.25677 13.8083L5.8125 16.4378ZM6.735 17.7412L9.56941 16.7582L9.55428 16.7146L9.53781 16.6715L6.735 17.7412ZM9.76125 18.8254H12.7613V15.2062L9.20487 15.8775L9.76125 18.8254ZM9.76937 20.1511L12.7692 20.1215L12.7692 20.1215L9.76937 20.1511ZM9.15375 20.9824L8.18355 23.8212L8.39941 23.8949L8.62393 23.9352L9.15375 20.9824ZM21 12C21 16.9706 16.9706 21 12 21V27C20.2843 27 27 20.2843 27 12H21ZM12 3C16.9706 3 21 7.02944 21 12H27C27 3.71573 20.2843 -3 12 -3V3ZM3 12C3 7.02944 7.02944 3 12 3V-3C3.71573 -3 -3 3.71573 -3 12H3ZM12 21C7.02944 21 3 16.9706 3 12H-3C-3 20.2843 3.71573 27 12 27V21ZM12 0C5.30044 0 0 5.5436 0 12.2276H6C6 8.71514 8.75456 6 12 6V0ZM24 12.2276C24 5.5436 18.6996 0 12 0V6C15.2454 6 18 8.71514 18 12.2276H24ZM21.7653 19.3372C23.2215 17.258 23.9996 14.7716 24 12.2281L18 12.2272C17.9998 13.5506 17.5943 14.8336 16.8507 15.8954L21.7653 19.3372ZM15.8498 23.8174C18.2427 22.9894 20.3085 21.4175 21.7653 19.3372L16.8507 15.8954C16.1078 16.9562 15.0684 17.7388 13.8877 18.1473L15.8498 23.8174ZM11.25 20.5441C11.25 21.2867 11.4997 22.3031 12.3562 23.0934C13.3203 23.983 14.5295 24.1144 15.4714 23.9212L14.2661 18.0435C14.758 17.9427 15.6579 17.9759 16.4251 18.6839C17.0847 19.2925 17.25 20.0437 17.25 20.5441H11.25ZM11.253 19.9989C11.2514 20.2325 11.25 20.4266 11.25 20.5441H17.25C17.25 20.4533 17.2511 20.287 17.2529 20.0407L11.253 19.9989ZM11.2613 18.0065C11.2613 18.8166 11.2563 19.5216 11.253 19.9989L17.2529 20.0407C17.2562 19.5628 17.2613 18.8394 17.2613 18.0065H11.2613ZM11.667 18.5472C11.1969 18.1317 11.2613 17.775 11.2613 18.0065H17.2613C17.2613 16.5077 16.7631 15.0437 15.6405 14.0515L11.667 18.5472ZM14.76 11.7432C14.76 12.3368 14.6714 12.6594 14.612 12.8088C14.5604 12.9388 14.518 12.9741 14.5017 12.9881C14.4182 13.0599 14.1309 13.2245 13.3104 13.3191L13.9971 19.2796C15.1791 19.1435 16.9449 18.8005 18.4139 17.5372C20.0166 16.1589 20.76 14.1458 20.76 11.7432H14.76ZM14.5946 11.2556C14.6605 11.3298 14.6942 11.3907 14.7146 11.4436C14.7344 11.4951 14.76 11.5863 14.76 11.7432H20.76C20.76 9.97389 20.1285 8.4509 19.0804 7.27097L14.5946 11.2556ZM13.9527 7.9083C13.9905 8.0054 14.0063 8.07849 14.0132 8.12712C14.0203 8.17666 14.0198 8.21162 14.0185 8.23128C14.0158 8.27176 14.0087 8.25989 14.0427 8.1729L19.6323 10.3536C19.8838 9.70907 20.4054 7.93987 19.5423 5.72758L13.9527 7.9083ZM15.9878 10.225C16.6064 9.7939 16.8607 9.75799 16.7842 9.77438C16.7431 9.78319 16.6275 9.80232 16.4479 9.79303C16.3591 9.78844 16.2583 9.77708 16.1469 9.75572C16.0914 9.74507 16.0337 9.73204 15.9741 9.71632C15.9443 9.70847 15.914 9.69996 15.8834 9.69077C15.8681 9.68617 15.8526 9.68141 15.8371 9.67647C15.8294 9.674 15.8216 9.67149 15.8138 9.66893C15.8099 9.66765 15.806 9.66636 15.8021 9.66506C15.8001 9.66441 15.7972 9.66343 15.7962 9.66311C15.7932 9.66212 15.7903 9.66113 16.7475 6.81794C17.7047 3.97474 17.7018 3.97375 17.6988 3.97276C17.6978 3.97243 17.6949 3.97145 17.6929 3.97079C17.6889 3.96947 17.6849 3.96816 17.6809 3.96685C17.673 3.96424 17.6649 3.96164 17.6568 3.95905C17.6405 3.95388 17.624 3.94877 17.6072 3.94373C17.5736 3.93365 17.5389 3.92386 17.5032 3.91444C17.4316 3.89559 17.3561 3.87828 17.2766 3.86303C17.1172 3.83248 16.9441 3.81067 16.7578 3.80104C16.383 3.78165 15.9714 3.81232 15.5267 3.90764C14.6431 4.09704 13.6599 4.53405 12.5572 5.30253L15.9878 10.225ZM12.0225 10.4523C12.5206 10.4523 13.0049 10.5205 13.4413 10.6463L15.1037 4.88123C14.1001 4.59181 13.0544 4.45234 12.0225 4.45234V10.4523ZM10.6037 10.6463C11.0401 10.5205 11.5244 10.4523 12.0225 10.4523V4.45234C10.9906 4.45234 9.94493 4.59181 8.94128 4.88123L10.6037 10.6463ZM7.2975 6.81794C8.21535 9.67408 8.21243 9.67502 8.20952 9.67595C8.20855 9.67626 8.20563 9.67719 8.20369 9.6778C8.19981 9.67903 8.19593 9.68025 8.19206 9.68146C8.18433 9.68388 8.17661 9.68625 8.16892 9.68858C8.15355 9.69325 8.13827 9.69774 8.12311 9.70207C8.09277 9.71073 8.06288 9.71872 8.03346 9.72607C7.97458 9.74078 7.9178 9.75287 7.86327 9.76266C7.75387 9.7823 7.6555 9.7923 7.56952 9.79595C7.39557 9.80334 7.286 9.78422 7.25076 9.77654C7.18574 9.76237 7.44715 9.80399 8.06834 10.2327L11.4767 5.2948C10.3766 4.5355 9.40051 4.1042 8.5283 3.91413C8.08946 3.81849 7.68389 3.78568 7.31481 3.80136C7.13128 3.80916 6.96058 3.8288 6.80323 3.85704C6.72473 3.87113 6.65007 3.88727 6.57931 3.90495C6.54395 3.91378 6.50962 3.92298 6.47632 3.93249C6.45968 3.93724 6.4433 3.94206 6.42718 3.94695C6.41912 3.9494 6.41114 3.95186 6.40321 3.95433C6.39925 3.95557 6.39531 3.95681 6.39138 3.95805C6.38942 3.95867 6.38648 3.95961 6.3855 3.95992C6.38257 3.96086 6.37965 3.9618 7.2975 6.81794ZM10.0023 8.1729C10.0363 8.25989 10.0292 8.27176 10.0265 8.23128C10.0252 8.21162 10.0247 8.17666 10.0318 8.12712C10.0387 8.07849 10.0545 8.0054 10.0923 7.9083L4.50266 5.72758C3.63958 7.93987 4.1612 9.70907 4.41266 10.3536L10.0023 8.1729ZM9.285 11.7432C9.285 11.5951 9.30955 11.5023 9.33169 11.4446C9.35433 11.3857 9.38972 11.3239 9.45044 11.2556L4.96456 7.27098C3.91313 8.45468 3.285 9.99037 3.285 11.7432H9.285ZM10.7233 13.3191C9.91076 13.2254 9.62618 13.0603 9.54416 12.9894C9.52754 12.975 9.4846 12.9387 9.43261 12.8074C9.3731 12.6571 9.285 12.3345 9.285 11.7432H3.285C3.285 14.138 4.024 16.1477 5.61896 17.5273C7.08382 18.7944 8.84674 19.1425 10.0367 19.2796L10.7233 13.3191ZM12.7807 17.9241C12.7815 17.918 12.7388 18.2155 12.3764 18.5386L8.38357 14.0601C7.50371 14.8445 6.98848 15.9495 6.83178 17.143L12.7807 17.9241ZM4.59031 18.2781C5.48209 19.8147 6.86985 20.6168 8.32372 20.7539C9.56895 20.8713 10.5891 20.4795 11.078 20.2506L8.53447 14.8165C8.54984 14.8093 8.56747 14.8017 8.60004 14.794C8.63088 14.7867 8.73165 14.7657 8.8869 14.7804C9.05835 14.7965 9.27443 14.8552 9.4808 14.9873C9.68733 15.1195 9.77225 15.2536 9.77969 15.2664L4.59031 18.2781ZM5.85006 18.826C5.19525 18.8367 4.80902 18.5256 4.73884 18.4652C4.65984 18.3972 4.63855 18.3586 4.62341 18.3337L9.74659 15.2108C9.5627 14.9091 9.20391 14.3918 8.65241 13.9172C8.10973 13.4502 7.116 12.8046 5.75244 12.8268L5.85006 18.826ZM7.25677 13.8083C7.34887 13.8589 7.43708 13.9178 7.53274 14.0004C7.56458 14.0279 7.90538 14.3081 8.14766 14.8534C8.28307 15.1582 8.47446 15.7442 8.34747 16.4857C8.20672 17.3075 7.74392 17.9236 7.24517 18.2991C6.80947 18.6272 6.39963 18.7384 6.22095 18.778C6.02113 18.8222 5.88176 18.8255 5.84715 18.8261L5.75535 12.8268C5.48509 12.8309 4.51466 12.8445 3.63627 13.5058C3.07864 13.9257 2.58411 14.5939 2.43356 15.4729C2.29677 16.2717 2.50029 16.92 2.66453 17.2897C2.96446 17.9647 3.42972 18.3848 3.61097 18.5413C3.85604 18.753 4.11863 18.9301 4.36823 19.0672L7.25677 13.8083ZM9.53781 16.6715C9.39543 16.2984 9.15403 15.8416 8.90444 15.4525C8.76975 15.2425 8.59152 14.9873 8.37424 14.7357C8.18471 14.5162 7.82603 14.1339 7.30392 13.8347L4.32108 19.0408C4.13636 18.9349 4.01325 18.8317 3.95181 18.7765C3.88627 18.7176 3.8471 18.6734 3.8333 18.6574C3.80902 18.6293 3.81853 18.6365 3.85399 18.6918C3.88569 18.7412 3.91771 18.7972 3.94254 18.8448C3.95439 18.8675 3.96083 18.8811 3.96204 18.8837C3.96561 18.8913 3.95272 18.8646 3.93219 18.8109L9.53781 16.6715ZM9.20487 15.8775C8.51245 16.0081 8.59421 15.8252 8.96293 16.0372C9.13758 16.1376 9.28539 16.278 9.39477 16.4289C9.49707 16.57 9.54713 16.694 9.56941 16.7582L3.90059 18.7241C4.13001 19.3856 4.67721 20.4941 5.97238 21.2388C7.24392 21.9698 8.7488 22.0695 10.3176 21.7734L9.20487 15.8775ZM12.7692 20.1215C12.7659 19.7839 12.7613 19.313 12.7613 18.8254H6.76125C6.76125 19.3464 6.76619 19.8448 6.76952 20.1808L12.7692 20.1215ZM12.7725 20.5441C12.7725 20.449 12.7709 20.2916 12.7692 20.1215L6.76952 20.1808C6.77138 20.3693 6.7725 20.4869 6.7725 20.5441H12.7725ZM8.62393 23.9352C9.52757 24.0974 10.6999 23.9669 11.6487 23.1052C12.514 22.3195 12.7725 21.3002 12.7725 20.5441H6.7725C6.7725 20.0301 6.94667 19.2704 7.61504 18.6634C8.36698 17.9806 9.22993 17.9481 9.68357 18.0295L8.62393 23.9352ZM0 12.2276C0 17.5949 3.3931 22.184 8.18355 23.8212L10.1239 18.1436C7.7594 17.3355 6 15.0268 6 12.2276H0Z"
        fill="var(--icon-fill, black)" mask="url(#path-1-inside-1_41_34)" />


</svg>