<svg aria-hidden="true" class="icon icon-large" viewBox="0 0 24 24" fill="none" xmlns="http://www.w3.org/2000/svg">
    <path fill-rule="evenodd" clip-rule="evenodd"
        d="M8.70524 23.4992C8.72336 23.4311 8.73189 23.3612 8.73189 23.293C8.73189 23.1751 8.72986 22.9625 8.72721 22.685C8.72223 22.1636 8.71507 21.4129 8.71507 20.631C5.24269 21.2921 4.34485 19.7561 4.0684 18.9533C3.91215 18.542 3.23907 17.2731 2.65012 16.9339C2.16695 16.6654 1.47584 16.0043 2.6333 15.9869C3.72225 15.9695 4.4999 17.0233 4.75951 17.4521C6.00351 19.6145 7.9903 19.0055 8.78478 18.6302C8.90497 17.7019 9.26795 17.0768 9.66579 16.7189C6.59005 16.3622 3.37729 15.1294 3.37729 9.6626C3.37729 8.10918 3.91215 6.82294 4.79317 5.82254C4.65494 5.46463 4.17177 3.99944 4.93139 2.03467C4.93139 2.03467 6.08885 1.65936 8.7331 3.49986C9.83887 3.17799 11.0132 3.01768 12.1886 3.01768C13.3629 3.01768 14.5384 3.17923 15.6442 3.49986C18.2884 1.64197 19.4447 2.03467 19.4447 2.03467C20.2055 3.99944 19.7211 5.46463 19.5829 5.82254C20.4639 6.82294 21 8.09054 21 9.6626C21 15.1468 17.7692 16.361 14.6935 16.7189C15.1947 17.1663 15.6262 18.0237 15.6262 19.3634C15.6262 20.6357 15.6187 21.7417 15.6137 22.4813C15.6112 22.8527 15.6093 23.1317 15.6093 23.293C15.6093 23.3576 15.617 23.4244 15.6333 23.49C14.5277 23.8222 13.3605 24 12.1538 24C10.9584 24 9.80164 23.8255 8.70524 23.4992Z"
        fill="var(--icon-fill, black)" />
</svg>