<svg viewBox="0 0 24 24" fill="none" xmlns="http://www.w3.org/2000/svg">
    <path fill-rule="evenodd" clip-rule="evenodd"
        d="M12 24C18.6274 24 24 18.6274 24 12C24 5.37258 18.6274 0 12 0C5.37258 0 0 5.37258 0 12C0 18.6274 5.37258 24 12 24ZM11.9496 8.09164L11.9495 8.09175C11.2651 7.4164 10.3279 7 9.29412 7C7.19868 7 5.5 8.71077 5.5 10.8211C5.5 11.8623 5.91351 12.8063 6.58415 13.4955L6.58399 13.4956L11.9496 18.8996L17.0663 13.7462C17.8816 13.0453 18.3998 11.995 18.3998 10.8211C18.3998 8.71077 16.7254 7 14.6599 7C13.6174 7 12.6746 7.43577 11.9963 8.13874L11.9893 8.13164L11.9647 8.10689L11.9496 8.09164Z"
        fill="black" />
</svg>