<svg width="24" height="24" viewBox="0 0 24 24" fill="none" xmlns="http://www.w3.org/2000/svg">
<g clip-path="url(#clip0_49_30)">
<path fill-rule="evenodd" clip-rule="evenodd" d="M24 12C24 18.6274 18.6274 24 12 24C5.37258 24 0 18.6274 0 12C0 5.37258 5.37258 0 12 0C18.6274 0 24 5.37258 24 12ZM12.6934 4.6672L18.0062 9.77942C18.6548 10.4036 18.213 11.5 17.3128 11.5H17V17C17 17.5523 16.5523 18 16 18H8C7.44772 18 7 17.5523 7 17V11.5H6.68722C5.78701 11.5 5.34518 10.4036 5.99385 9.77942L11.3066 4.6672C11.6938 4.29464 12.3062 4.29464 12.6934 4.6672Z" fill="black"/>
</g>
<defs>
<clipPath id="clip0_49_30">
<rect width="24" height="24" fill="white"/>
</clipPath>
</defs>
</svg>
