<svg aria-hidden="true" class="icon" width="24" height="24" viewBox="0 0 24 24" fill="none"
    xmlns="http://www.w3.org/2000/svg">
    <path fill-rule="evenodd" clip-rule="evenodd"
        d="M24 12C24 18.6274 18.6274 24 12 24C5.37258 24 0 18.6274 0 12C0 5.37258 5.37258 0 12 0C18.6274 0 24 5.37258 24 12ZM11.5104 4.5C11.5104 4.22386 11.7343 4 12.0104 4C12.2866 4 12.5104 4.22386 12.5104 4.5V5.5C12.5104 5.77614 12.2866 6 12.0104 6C11.7343 6 11.5104 5.77614 11.5104 5.5V4.5ZM18.0104 12C18.0104 12.2761 18.2343 12.5 18.5104 12.5H19.5104C19.7866 12.5 20.0104 12.2761 20.0104 12C20.0104 11.7239 19.7866 11.5 19.5104 11.5H18.5104C18.2343 11.5 18.0104 11.7239 18.0104 12ZM16.9602 6.34318C17.1554 6.14792 17.472 6.14792 17.6673 6.34318C17.8625 6.53844 17.8625 6.85502 17.6673 7.05028L16.9602 7.75739C16.7649 7.95265 16.4483 7.95265 16.2531 7.75739C16.0578 7.56213 16.0578 7.24555 16.2531 7.05028L16.9602 6.34318ZM6.35355 6.34318C6.15829 6.53844 6.15829 6.85502 6.35355 7.05028L7.06066 7.75739C7.25592 7.95265 7.5725 7.95265 7.76777 7.75739C7.96303 7.56213 7.96303 7.24555 7.76777 7.05028L7.06066 6.34318C6.8654 6.14792 6.54882 6.14792 6.35355 6.34318ZM16.2531 16.9498C16.0578 16.7545 16.0578 16.4379 16.2531 16.2427C16.4484 16.0474 16.7649 16.0474 16.9602 16.2427L17.6673 16.9498C17.8626 17.145 17.8626 17.4616 17.6673 17.6569C17.472 17.8521 17.1555 17.8521 16.9602 17.6569L16.2531 16.9498ZM8.99273 8.131C11.1688 6.4309 14.311 6.81672 16.0111 8.99275C17.7112 11.1688 17.3254 14.311 15.1493 16.0111C12.9733 17.7112 9.83108 17.3254 8.13098 15.1494C6.43088 12.9733 6.8167 9.8311 8.99273 8.131ZM15.792 14.0055C15.2416 14.1773 14.6466 14.2375 14.037 14.1627C11.743 13.881 10.1116 11.793 10.3933 9.49893C10.4681 8.88945 10.6705 8.32674 10.9703 7.83426C9.44916 8.3091 8.26837 9.63628 8.06154 11.3208C7.77987 13.6148 9.41121 15.7029 11.7053 15.9845C13.3898 16.1914 14.9633 15.3667 15.792 14.0055Z"
        fill="var(--icon-fill, black)" />
</svg>