<svg aria-hidden="true" class="icon" width="24" height="24" viewBox="0 0 24 24" fill="none"
    xmlns="http://www.w3.org/2000/svg">

    <path fill-rule="evenodd" clip-rule="evenodd"
        d="M24 12C24 18.6274 18.6274 24 12 24C5.37258 24 0 18.6274 0 12C0 5.37258 5.37258 0 12 0C18.6274 0 24 5.37258 24 12ZM7 15C7 12.2386 9.23858 10 12 10C14.7614 10 17 12.2386 17 15V18C17 18.5523 16.5523 19 16 19H8C7.44772 19 7 18.5523 7 18V15ZM12 10C10.3431 10 9 8.65685 9 7C9 5.34315 10.3431 4 12 4C13.6569 4 15 5.34315 15 7C15 8.65685 13.6569 10 12 10Z"
        fill="var(--icon-fill, black)" />

</svg>