<svg width="24" height="24" viewBox="0 0 24 24" fill="none" xmlns="http://www.w3.org/2000/svg">
<g clip-path="url(#clip0_49_160)">
<path fill-rule="evenodd" clip-rule="evenodd" d="M24 12C24 18.6274 18.6274 24 12 24C5.37258 24 0 18.6274 0 12C0 5.37258 5.37258 0 12 0C18.6274 0 24 5.37258 24 12ZM16.6398 15.9651C15.8219 16.0849 14.9659 16.0367 14.1196 15.794C10.9342 14.8807 9.09244 11.558 10.0058 8.37264C10.2485 7.52634 10.6612 6.77488 11.1963 6.14473C8.93567 6.4759 6.96583 8.09048 6.29512 10.4295C5.38174 13.6149 7.22353 16.9375 10.4089 17.8509C12.7479 18.5216 15.161 17.7067 16.6398 15.9651ZM18 11L17.5 11.25L17 11L17.25 11.5L17 12L17.5 11.75L18 12L17.75 11.5L18 11ZM14 10L15 10.5L16 10L15.5 11L16 12L15 11.5L14 12L14.5 11L14 10ZM17 13L16.5 13.25L16 13L16.25 13.5L16 14L16.5 13.75L17 14L16.75 13.5L17 13Z" fill="black"/>
</g>
<defs>
<clipPath id="clip0_49_160">
<rect width="24" height="24" fill="white"/>
</clipPath>
</defs>
</svg>
