<svg viewBox="0 0 24 24" fill="none" xmlns="http://www.w3.org/2000/svg">
    <path fill-rule="evenodd" clip-rule="evenodd"
        d="M24 12C24 18.6274 18.6274 24 12 24C5.37258 24 0 18.6274 0 12C0 5.37258 5.37258 0 12 0C18.6274 0 24 5.37258 24 12ZM8 7.5C8 6.67157 8.67157 6 9.5 6C10.3284 6 11 6.67157 11 7.5V16.5C11 17.3284 10.3284 18 9.5 18C8.67157 18 8 17.3284 8 16.5V7.5ZM14.5 6C13.6716 6 13 6.67157 13 7.5V16.5C13 17.3284 13.6716 18 14.5 18C15.3284 18 16 17.3284 16 16.5V7.5C16 6.67157 15.3284 6 14.5 6Z"
        fill="black" />
</svg>