<svg aria-hidden="true" class="icon" width="24" height="24" viewBox="0 0 24 24" fill="none"
    xmlns="http://www.w3.org/2000/svg">
    <path fill-rule="evenodd" clip-rule="evenodd"
        d="M12 24C18.6274 24 24 18.6274 24 12C24 5.37258 18.6274 0 12 0C5.37258 0 0 5.37258 0 12C0 18.6274 5.37258 24 12 24ZM12 17C14.7614 17 17 14.7614 17 12C17 9.23858 14.7614 7 12 7C9.23856 7 6.99998 9.23858 6.99998 12C6.99998 14.7614 9.23856 17 12 17ZM11.5 4.5C11.5 4.22386 11.7238 4 12 4C12.2761 4 12.5 4.22386 12.5 4.5V5.5C12.5 5.77614 12.2761 6 12 6C11.7238 6 11.5 5.77614 11.5 5.5V4.5ZM12 18C11.7238 18 11.5 18.2239 11.5 18.5V19.5C11.5 19.7761 11.7238 20 12 20C12.2761 20 12.5 19.7761 12.5 19.5V18.5C12.5 18.2239 12.2761 18 12 18ZM4.49998 12.5C4.22384 12.5 3.99998 12.2761 3.99998 12C3.99998 11.7239 4.22384 11.5 4.49998 11.5H5.49998C5.77612 11.5 5.99998 11.7239 5.99998 12C5.99998 12.2761 5.77612 12.5 5.49998 12.5H4.49998ZM18 12C18 12.2761 18.2238 12.5 18.5 12.5H19.5C19.7761 12.5 20 12.2761 20 12C20 11.7239 19.7761 11.5 19.5 11.5H18.5C18.2238 11.5 18 11.7239 18 12ZM16.9497 6.34317C17.145 6.14791 17.4616 6.14791 17.6568 6.34317C17.8521 6.53843 17.8521 6.85501 17.6568 7.05028L16.9497 7.75738C16.7545 7.95265 16.4379 7.95265 16.2426 7.75738C16.0474 7.56212 16.0474 7.24554 16.2426 7.05028L16.9497 6.34317ZM7.75736 16.2427C7.5621 16.0474 7.24552 16.0474 7.05026 16.2427L6.34315 16.9498C6.14789 17.145 6.14789 17.4616 6.34315 17.6569C6.53841 17.8521 6.85499 17.8521 7.05026 17.6569L7.75736 16.9498C7.95262 16.7545 7.95262 16.4379 7.75736 16.2427ZM6.34312 7.05028C6.14786 6.85501 6.14786 6.53843 6.34312 6.34317C6.53838 6.14791 6.85497 6.14791 7.05023 6.34317L7.75733 7.05028C7.9526 7.24554 7.9526 7.56212 7.75733 7.75738C7.56207 7.95265 7.24549 7.95265 7.05023 7.75738L6.34312 7.05028ZM16.2427 16.2427C16.0474 16.4379 16.0474 16.7545 16.2427 16.9498L16.9498 17.6569C17.145 17.8521 17.4616 17.8521 17.6569 17.6569C17.8521 17.4616 17.8521 17.145 17.6569 16.9498L16.9498 16.2427C16.7545 16.0474 16.4379 16.0474 16.2427 16.2427Z"
        fill="var(--icon-fill, black)" />
</svg>