<svg xmlns="http://www.w3.org/2000/svg" viewBox="66.09157809474142 33.5 184.5 184.49999999999997">
    <defs>
        <linearGradient id="grad" x1="0%" y1="0%" x2="0%" y2="100%">
            <stop offset="0%" stop-color="#f9ad00" />
            <stop offset="100%" stop-color="#4e4e4e" />
        </linearGradient>
    </defs>
    <g fill="url(#grad)">
        <path d="M237.6 95L187.6 95L187.6 45L237.6 45L237.6 95Z" />
        <path d="M182.59 95L132.59 95L132.59 45L182.59 45L182.59 95Z" />
        <path d="M127.59 95L77.59 95L77.59 45L127.59 45L127.59 95Z" />
        <path d="M237.6 150L187.6 150L187.6 100L237.6 100L237.6 150Z" />
        <path d="M182.59 150L132.59 150L132.59 100L182.59 100L182.59 150Z" />
        <path d="M182.59 205L132.59 205L132.59 155L182.59 155L182.59 205Z" />
        <path d="M237.6 205L187.6 205L187.6 155L237.6 155L237.6 205Z" />
        <path d="M127.59 205L77.59 205L77.59 155L127.59 155L127.59 205Z" />
    </g>
</svg>