<svg viewBox="0 0 250 250" fill="none" xmlns="http://www.w3.org/2000/svg">
    <circle cx="125" cy="125" r="124" fill="white" stroke="#154AE1" stroke-width="2" />
    <circle cx="125" cy="125" r="95" fill="#154AE1" />
    <path d="M225 125C225 179.667 180.238 224 125 224C69.7621 224 25 179.667 25 125C25 70.3332 69.7621 26 125 26C180.238 26 225 70.3332 225 125Z" stroke="#154AE1" stroke-width="2" />
    <path d="M47.3784 201.765C48.0182 201.044 48.7913 200.519 49.6975 200.189C50.6003 199.862 51.5612 199.804 52.5802 200.013C53.5919 200.223 54.5596 200.73 55.4835 201.532C56.2383 202.188 56.7955 202.886 57.155 203.627C57.5146 204.367 57.6973 205.098 57.7033 205.821C57.7053 206.54 57.5803 207.218 57.3284 207.855C57.0725 208.488 56.7284 209.048 56.2961 209.535C55.6701 210.24 54.9116 210.761 54.0207 211.097C53.1297 211.434 52.1786 211.501 51.1674 211.298C50.1528 211.1 49.1776 210.594 48.242 209.781C47.3889 209.039 46.7863 208.271 46.4343 207.475C46.0823 206.679 45.926 205.926 45.9653 205.215C46.0047 204.504 46.1594 203.855 46.4294 203.269C46.692 202.683 47.0084 202.182 47.3784 201.765ZM49.2683 203.449C48.874 203.893 48.5398 204.347 48.2657 204.813C47.9876 205.275 47.8031 205.749 47.7122 206.236C47.6177 206.727 47.6546 207.211 47.8228 207.688C47.9875 208.169 48.3155 208.623 48.8069 209.05C49.4831 209.638 50.1606 209.93 50.8394 209.927C51.5108 209.924 52.1383 209.731 52.722 209.348C53.2984 208.965 53.8494 208.478 54.3751 207.886C54.6656 207.559 54.9466 207.2 55.2181 206.808C55.4895 206.416 55.7087 205.961 55.8756 205.444C56.0391 204.93 56.0541 204.388 55.9206 203.817C55.7838 203.249 55.4283 202.716 54.8544 202.217C54.2843 201.722 53.7065 201.451 53.121 201.404C52.5281 201.358 51.9833 201.454 51.4866 201.692C50.9826 201.93 50.557 202.205 50.2099 202.518C49.8588 202.827 49.545 203.137 49.2683 203.449Z" fill="#154AE1" />
    <path d="M38.4139 188.415L40.9634 186.556L46.9661 193.716L46.3983 194.182L35.3762 195.03L36.9672 196.928C37.352 197.387 37.6827 197.729 37.9592 197.954C38.2317 198.181 38.564 198.306 38.9561 198.328C39.3408 198.349 39.7992 198.199 40.3312 197.877L40.813 198.452L38.4951 200.101L32.894 193.419L33.4375 192.973L44.4838 192.105L42.5314 189.776C42.2838 189.481 42.066 189.245 41.8779 189.069C41.6864 188.89 41.4493 188.741 41.1666 188.622C40.8806 188.5 40.5515 188.46 40.1794 188.503C39.804 188.541 39.3694 188.696 38.8757 188.966L38.4139 188.415Z" fill="#154AE1" />
    <path d="M32.1868 173.14L34.7897 177.4L34.1729 177.769C33.9529 177.409 33.7681 177.161 33.6185 177.026C33.4644 176.894 33.2912 176.885 33.099 177C32.9649 177.08 32.8449 177.188 32.7389 177.325L31.9269 178.393L33.7191 181.326L34.4436 181.193C34.8504 181.12 35.1275 181.039 35.275 180.951C35.5432 180.79 35.6506 180.587 35.5972 180.339C35.5411 180.088 35.4288 179.824 35.2605 179.549L35.8773 179.18L37.7795 182.293L37.1627 182.662C37.0107 182.413 36.8347 182.23 36.635 182.113C36.4352 181.996 36.1582 181.937 35.8039 181.936C35.4424 181.934 34.9669 181.985 34.3773 182.089L25.9191 183.589L25.5321 182.955L30.9299 175.967C31.3083 175.468 31.5583 175.118 31.6801 174.918C31.7974 174.72 31.855 174.51 31.8528 174.286C31.8462 174.066 31.7519 173.807 31.57 173.509L32.1868 173.14ZM31.4165 179.026L29.0069 182.17L32.9032 181.459L31.4165 179.026Z" fill="#154AE1" />
    <path d="M25.3078 157.768L26.3974 160.387C26.3313 160.526 26.227 160.709 26.0844 160.936C25.9399 161.158 25.7676 161.408 25.5675 161.687C25.3626 161.967 25.194 162.199 25.0615 162.382L24.238 163.494C23.8701 163.992 23.6289 164.355 23.5145 164.582C23.3932 164.805 23.3495 165.026 23.3833 165.242C23.4103 165.456 23.5209 165.797 23.715 166.263L23.8681 166.631L26.4292 165.587C26.6993 165.477 26.9043 165.36 27.0443 165.235C27.1843 165.111 27.2536 164.925 27.2524 164.678C27.2492 164.426 27.1625 164.096 26.9924 163.687L27.658 163.416L29.6991 168.321L29.0335 168.592C28.7854 167.996 28.5395 167.649 28.2958 167.551C28.0501 167.449 27.7151 167.484 27.2906 167.657L21.0976 170.181C20.678 170.352 20.4164 170.557 20.3128 170.796C20.2024 171.032 20.2732 171.453 20.5254 172.059L19.8453 172.336L18.8305 170.101C18.7488 169.932 18.6595 169.738 18.5626 169.519C18.4638 169.294 18.3743 169.086 18.2943 168.894C18.2322 168.745 18.134 168.495 17.9996 168.145C17.8119 167.654 17.6518 167.187 17.5191 166.747C17.3864 166.306 17.3028 165.949 17.2683 165.676C17.2098 165.278 17.2197 164.875 17.2978 164.466C17.374 164.053 17.5437 163.674 17.8069 163.331C18.0681 162.982 18.4278 162.715 18.886 162.528C19.214 162.395 19.5624 162.337 19.9311 162.355C20.2978 162.369 20.6678 162.485 21.041 162.704C21.4122 162.919 21.7748 163.255 22.1288 163.712C22.1901 163.277 22.3241 162.873 22.5307 162.502C22.7326 162.133 23.1344 161.52 23.7362 160.661C24.078 160.168 24.3284 159.773 24.4875 159.478C24.6418 159.184 24.7284 158.938 24.7472 158.739C24.7591 158.537 24.7241 158.304 24.6422 158.04L25.3078 157.768ZM19.7961 164.756C19.0147 165.074 18.5953 165.523 18.5377 166.104C18.4782 166.679 18.6075 167.349 18.9257 168.114C18.9697 168.219 19.0071 168.303 19.038 168.363C19.062 168.421 19.09 168.488 19.122 168.565L23.065 166.958L22.8759 166.504C22.5737 165.778 22.2024 165.218 21.762 164.823C21.3195 164.424 20.6642 164.402 19.7961 164.756Z" fill="#154AE1" />
    <path d="M21.0819 141.574L22.4535 147.295L21.7538 147.459L21.6427 146.996C21.5479 146.601 21.4608 146.338 21.3811 146.207C21.2952 146.072 21.1914 146.018 21.0697 146.047C20.8923 146.089 20.5618 146.386 20.0783 146.938L17.4825 149.883L18.9442 150.92L21.1726 150.397C21.6238 150.291 21.9158 150.112 22.0486 149.862C22.1763 149.612 22.1703 149.196 22.0306 148.614L22.7303 148.45L23.9653 153.6L23.2656 153.765C23.1599 153.324 23.0366 153.011 22.8955 152.825C22.7533 152.633 22.5912 152.527 22.4093 152.505C22.2262 152.479 21.9876 152.5 21.6935 152.569L15.2137 154.092C14.9196 154.161 14.6988 154.245 14.5511 154.344C14.3971 154.439 14.3006 154.606 14.2616 154.845C14.2162 155.08 14.2464 155.418 14.352 155.859L13.6523 156.024L12.4174 150.873L13.1171 150.708C13.2689 151.341 13.4579 151.728 13.6841 151.867C13.9104 152.006 14.2466 152.024 14.6928 151.919L17.7958 151.19L14.2207 148.643C13.9746 148.466 13.771 148.342 13.6098 148.273C13.4436 148.205 13.2742 148.192 13.1019 148.232C12.7368 148.318 12.6374 148.708 12.8038 149.402L12.1041 149.566L10.9766 144.863L11.6763 144.699C11.7942 145.056 11.9089 145.345 12.0205 145.565C12.131 145.78 12.2757 145.981 12.4546 146.169C12.6336 146.357 12.858 146.556 13.1278 146.765C13.3976 146.975 13.8427 147.301 14.463 147.744L15.6571 148.603L19.2636 144.545C19.6473 144.113 19.9283 143.766 20.1067 143.505C20.28 143.245 20.3888 142.984 20.4331 142.722C20.4775 142.46 20.4605 142.132 20.3822 141.739L21.0819 141.574Z" fill="#154AE1" />
    <path d="M16.812 129.343C17.139 129.316 17.4927 129.357 17.8732 129.466C18.2485 129.575 18.6169 129.759 18.9787 130.016C19.3348 130.268 19.6376 130.601 19.8871 131.014C20.1315 131.427 20.2778 131.917 20.3261 132.482C20.374 133.043 20.2996 133.611 20.1031 134.187C19.9061 134.757 19.5827 135.255 19.1328 135.679C19.531 135.813 19.8956 135.89 20.2266 135.909L20.2877 136.625L16.6754 136.928L16.6143 136.212C17.1222 136.039 17.5948 135.819 18.032 135.552C18.4693 135.285 18.8363 134.93 19.133 134.487C19.4241 134.04 19.5437 133.512 19.4919 132.905C19.4467 132.376 19.2653 131.965 18.9476 131.673C18.6295 131.375 18.2499 131.245 17.8087 131.282C17.5596 131.303 17.3458 131.371 17.1674 131.485C16.9889 131.599 16.835 131.756 16.7057 131.955C16.5711 132.154 16.4347 132.425 16.2966 132.765C16.1527 133.101 16.0051 133.485 15.8537 133.916C15.6072 134.579 15.3483 135.129 15.0771 135.565C14.8059 136 14.5366 136.336 14.2693 136.573C13.9964 136.805 13.7337 136.973 13.4813 137.078C13.2284 137.178 12.9697 137.239 12.705 137.261C12.2327 137.301 11.7573 137.212 11.2789 136.996C10.7952 136.781 10.3873 136.441 10.055 135.978C9.71708 135.51 9.52065 134.954 9.46572 134.31C9.42364 133.817 9.49514 133.338 9.68022 132.873C9.8601 132.409 10.1281 131.997 10.4843 131.638C10.2583 131.563 9.9448 131.503 9.54371 131.458L9.48125 130.726L12.424 130.48L12.4865 131.211C10.9271 131.865 10.2023 132.835 10.3121 134.122C10.352 134.589 10.5087 134.955 10.7822 135.219C11.05 135.479 11.3786 135.593 11.7678 135.56C12.0741 135.534 12.3338 135.424 12.5471 135.228C12.7552 135.033 12.9275 134.786 13.0641 134.487C13.2002 134.183 13.3913 133.696 13.6373 133.028C13.9394 132.218 14.2068 131.584 14.4394 131.126C14.6717 130.662 14.9799 130.263 15.3643 129.927C15.7482 129.587 16.2307 129.392 16.812 129.343Z" fill="#154AE1" />
    <path d="M14.0531 103.391L13.9477 104.126C13.2882 104.102 12.7878 104.179 12.4465 104.357C12.106 104.531 11.8815 104.738 11.7731 104.981C11.6646 105.223 11.5868 105.51 11.5394 105.84L11.3487 107.17L19.0316 108.245C19.3359 108.288 19.5776 108.29 19.7567 108.252C19.9306 108.213 20.0803 108.087 20.2056 107.873C20.331 107.659 20.4251 107.333 20.488 106.895L21.1998 106.995L20.4457 112.254L19.7339 112.154C19.8263 111.509 19.793 111.081 19.6339 110.87C19.4748 110.658 19.1683 110.521 18.7144 110.457L11.0315 109.382L10.8718 110.495C10.809 110.933 10.793 111.302 10.8238 111.601C10.8494 111.899 11.0037 112.181 11.2865 112.446C11.565 112.706 12.0269 112.897 12.6724 113.019L12.567 113.754L9.58828 113.337L11.0743 102.974L14.0531 103.391Z" fill="#154AE1" />
    <path d="M22.1575 89.138L25.4753 90.2043L22.7542 99.241L22.0647 99.038C22.2524 98.4146 22.2834 97.9867 22.1576 97.7542C22.0318 97.5217 21.749 97.3408 21.3093 97.2113L14.924 95.3317C14.6342 95.2464 14.4004 95.2101 14.2225 95.2229C14.0411 95.2292 13.8731 95.3264 13.7186 95.5143C13.5606 95.6959 13.4148 96.0085 13.2811 96.4524L12.5916 96.2494L15.1258 87.8336L17.8044 88.4755L17.5972 89.1638C16.966 89.1463 16.4948 89.203 16.1834 89.334C15.8685 89.4584 15.6453 89.6398 15.5137 89.8779C15.3787 90.1096 15.2353 90.4773 15.0837 90.981L14.5115 92.8811L18.1014 93.9379L18.4122 92.9055C18.5189 92.5515 18.5685 92.2783 18.5611 92.0861C18.5487 91.8924 18.4656 91.735 18.3117 91.6137C18.1579 91.4924 17.8973 91.3641 17.5301 91.2289L17.7464 90.5107L21.1264 91.5057L20.9192 92.1939C20.5384 92.1035 20.2486 92.0725 20.0497 92.1008C19.8458 92.1277 19.6876 92.2196 19.5751 92.3765C19.4641 92.5284 19.3553 92.7814 19.2486 93.1355L18.9333 94.1828L21.324 94.8865C21.7237 95.0042 22.019 95.0803 22.2099 95.1147C22.4008 95.1492 22.5714 95.1424 22.7219 95.0944C22.8688 95.0399 22.9991 94.9235 23.1126 94.7452C23.2276 94.5619 23.3399 94.2882 23.4496 93.9242L23.6951 93.1088C23.7987 92.7647 23.8546 92.4255 23.8628 92.0913C23.8674 91.7506 23.735 91.3777 23.4653 90.9726C23.1907 90.566 22.6842 90.1889 21.9458 89.8412L22.1575 89.138Z" fill="#154AE1" />
    <path d="M31.7775 75.595L31.4632 76.2587C31.0099 76.1693 30.5691 76.1632 30.1408 76.2403C30.3447 76.771 30.4722 77.3293 30.5231 77.9154C30.574 78.5015 30.4134 79.1876 30.0411 79.9737C29.6332 80.8351 29.044 81.5379 28.2734 82.0821C27.505 82.6217 26.6415 82.9363 25.6827 83.026C24.7193 83.1136 23.7649 82.9385 22.8197 82.5007C22.1486 82.1899 21.564 81.7756 21.0657 81.2579C20.5698 80.7355 20.1938 80.1481 19.938 79.4958C19.6844 78.8388 19.569 78.1454 19.5919 77.4156C19.617 76.6811 19.8012 75.9514 20.1445 75.2265C20.7107 74.0309 21.571 73.224 22.7256 72.806C22.5714 72.6083 22.3239 72.3703 21.9832 72.0919L22.2841 71.4565L25.8751 72.9818L25.5541 73.6597C24.8959 73.5041 24.2571 73.478 23.6377 73.5814C23.0182 73.6848 22.4809 73.9008 22.0256 74.2295C21.5678 74.5512 21.2252 74.9522 20.9978 75.4323C20.7437 75.9689 20.6641 76.5204 20.759 77.0866C20.8492 77.6507 21.1388 78.1952 21.6278 78.7202C22.1191 79.2404 22.816 79.7096 23.7187 80.1276C24.5978 80.5348 25.3782 80.7728 26.0601 80.8418C26.7373 80.9087 27.2949 80.8627 27.7331 80.7041C28.1735 80.5407 28.5194 80.3336 28.7707 80.0827C29.0174 79.8295 29.2031 79.5712 29.3279 79.3076C29.6021 78.7286 29.6925 78.1362 29.599 77.5304C29.5077 76.92 29.296 76.357 28.9639 75.8416C28.627 75.3239 28.248 74.9073 27.8269 74.5918L28.1479 73.914L31.7775 75.595Z" fill="#154AE1" />
    <path d="M41.5662 60.7364L38.6015 65.0217L38.0063 64.6189C38.2493 64.2676 38.3942 63.9758 38.441 63.7434C38.4878 63.5109 38.4557 63.3194 38.3446 63.1687C38.2335 63.018 38.0572 62.861 37.8156 62.6975L35.1824 60.9152L32.3866 64.9564L35.0199 66.7387C35.3822 66.9839 35.6971 67.0871 35.9647 67.0481C36.2324 67.0091 36.5514 66.7219 36.9218 66.1865L37.517 66.5894L34.5301 70.9069L33.9349 70.504C34.1749 70.1571 34.3183 69.8674 34.3651 69.6349C34.4149 69.3982 34.3864 69.206 34.2796 69.0582C34.1715 68.9033 33.9945 68.7426 33.7486 68.5762L28.2363 64.8453C27.9905 64.6789 27.7807 64.5747 27.6072 64.5326C27.4293 64.4877 27.2386 64.5253 27.0352 64.6454C26.8317 64.7656 26.6041 65.0077 26.3522 65.3718L25.757 64.9689L28.7439 60.6514L29.3391 61.0543C28.9717 61.5854 28.8144 61.9821 28.8673 62.2443C28.9232 62.5022 29.1366 62.7567 29.5075 63.0078L31.6685 64.4704L34.4643 60.4291L32.3033 58.9665C32.0575 58.8001 31.8492 58.6938 31.6786 58.6475C31.5037 58.5982 31.3145 58.6337 31.111 58.7538C30.9076 58.874 30.6785 59.1182 30.4236 59.4866L29.8284 59.0837L32.7931 54.7984L33.3883 55.2012C33.1364 55.5653 32.9907 55.8629 32.9512 56.094C32.9117 56.325 32.9453 56.5144 33.0521 56.6622C33.1575 56.8027 33.3331 56.9562 33.579 57.1226L39.0913 60.8536C39.3285 61.0141 39.5331 61.1212 39.7051 61.1747C39.8757 61.221 40.0664 61.1834 40.2771 61.0619C40.4878 60.9403 40.7191 60.6976 40.971 60.3335L41.5662 60.7364Z" fill="#154AE1" />
    <path d="M45.9227 41.5369C45.5702 41.8988 45.3554 42.1941 45.2782 42.4227C45.1972 42.6477 45.2102 42.8471 45.3171 43.0209C45.424 43.1948 45.6396 43.4362 45.9639 43.7452L52.0437 49.5391L51.5423 50.0541L40.7466 49.3379L44.9714 53.364C45.2919 53.6694 45.5438 53.8735 45.7272 53.9764C45.9104 54.0719 46.1198 54.0771 46.3552 53.9921C46.5869 53.9035 46.8771 53.6801 47.2259 53.3219L47.7463 53.8178L44.9992 56.6387L44.4789 56.1428C44.8059 55.807 45.0044 55.5285 45.0743 55.3074C45.1441 55.079 45.1237 54.8797 45.0132 54.7096C44.9025 54.5321 44.6869 54.2907 44.3664 53.9853L40.4527 50.2556C40.1359 49.9538 39.8893 49.7368 39.7128 49.6045C39.5399 49.4685 39.3641 49.3766 39.1855 49.3286C39.003 49.2771 38.8052 49.2899 38.5918 49.3672C38.3783 49.4371 38.1348 49.5863 37.8613 49.8149L37.341 49.3191L39.494 47.1082L48.8597 47.7027L45.3589 44.3665C45.0723 44.0934 44.8337 43.9055 44.6429 43.8029C44.452 43.6929 44.2387 43.6767 44.0031 43.7544C43.7712 43.8283 43.4917 44.0332 43.1647 44.369L42.6444 43.8731L45.4023 41.041L45.9227 41.5369Z" fill="#154AE1" />
    <path d="M61.3844 41.6333L57.1655 44.9637L56.7143 44.4042C57.0658 44.1267 57.3054 43.8845 57.433 43.6776C57.5573 43.4667 57.592 43.2734 57.5373 43.0976C57.4866 42.9187 57.3615 42.7055 57.1621 42.4582L52.9834 37.2771C52.6957 36.9204 52.4173 36.7287 52.1483 36.7022C51.8835 36.6724 51.4894 36.864 50.9661 37.2771L50.5149 36.7177L54.7338 33.3873L55.185 33.9467C54.8334 34.2243 54.5955 34.4685 54.4712 34.6794C54.3469 34.8903 54.3101 35.0852 54.3608 35.2642C54.4123 35.4359 54.5377 35.6454 54.7372 35.8927L58.9159 41.0738C59.1055 41.3089 59.2809 41.4724 59.4419 41.5643C59.603 41.6561 59.7988 41.6707 60.0293 41.6082C60.264 41.5424 60.5652 41.3643 60.9332 41.0738L61.3844 41.6333Z" fill="#154AE1" />
    <path d="M74.2671 33.2092L73.6382 33.5885C73.3097 33.2636 72.9454 33.0149 72.5456 32.8425C72.4224 33.3972 72.2202 33.9328 71.9388 34.4491C71.6574 34.9655 71.1443 35.4482 70.3995 35.8974C69.5833 36.3896 68.7035 36.6495 67.7601 36.6772C66.8212 36.7021 65.9272 36.4871 65.0781 36.0321C64.2262 35.5727 63.5271 34.8996 62.9808 34.0127C62.5929 33.383 62.3343 32.7149 62.2049 32.0084C62.08 31.2991 62.091 30.6022 62.2381 29.9175C62.3897 29.2301 62.6766 28.5887 63.099 27.9934C63.5258 27.3954 64.0827 26.8893 64.7695 26.4751C65.9024 25.7919 67.0657 25.5952 68.2596 25.8848C68.2402 25.6349 68.1654 25.3 68.0351 24.8798L68.6372 24.5167L70.7889 27.7714L70.1466 28.1587C69.6837 27.6655 69.1654 27.2908 68.5917 27.0347C68.018 26.7785 67.4505 26.6616 66.8892 26.6838C66.3296 26.699 65.8224 26.8437 65.3674 27.118C64.859 27.4247 64.4879 27.84 64.2541 28.3642C64.0176 28.8839 63.9582 29.4974 64.076 30.2049C64.1981 30.9097 64.5201 31.6856 65.0419 32.5326C65.55 33.3574 66.0693 33.9869 66.5998 34.4211C67.1276 34.8509 67.618 35.1208 68.0711 35.2307C68.5286 35.3379 68.9315 35.3565 69.2798 35.2863C69.6253 35.2117 69.923 35.0991 70.1728 34.9485C70.7214 34.6177 71.124 34.1741 71.3808 33.6179C71.6421 33.0589 71.7766 32.473 71.7845 31.8601C71.7895 31.2428 71.7037 30.6864 71.5269 30.1909L72.1692 29.8036L74.2671 33.2092Z" fill="#154AE1" />
    <path d="M88.9373 26.8325L84.3211 28.7331L84.0425 28.0705C84.4326 27.9099 84.7057 27.7665 84.8617 27.6403C85.0156 27.5093 85.0492 27.3406 84.9624 27.1342C84.9019 26.9901 84.8114 26.8556 84.691 26.7305L83.7442 25.7686L80.5656 27.0773L80.5937 27.8092C80.6082 28.22 80.6487 28.5046 80.7154 28.6631C80.8365 28.9511 81.0239 29.088 81.2778 29.0736C81.5364 29.0572 81.8151 28.9876 82.1137 28.8646L82.3922 29.5272L79.0185 30.9162L78.74 30.2536C79.0097 30.1426 79.2172 29.998 79.3627 29.8198C79.5081 29.6417 79.6066 29.3786 79.6581 29.0308C79.7124 28.6761 79.7302 28.2013 79.7117 27.6062L79.4359 19.0685L80.1222 18.786L86.3031 25.1628C86.746 25.6113 87.0583 25.9108 87.2402 26.0612C87.42 26.2068 87.6213 26.2958 87.8439 26.328C88.0645 26.3555 88.3361 26.3028 88.6588 26.1699L88.9373 26.8325ZM83.1874 25.1699L80.4044 22.3196L80.5506 26.2555L83.1874 25.1699Z" fill="#154AE1" />
    <path d="M102.526 19.4293L103.326 22.877L94.1666 25.1502L93.9901 24.4534C94.622 24.2966 95.0059 24.1047 95.1418 23.8778C95.2778 23.6509 95.2895 23.3153 95.177 22.871L93.5427 16.4185C93.4673 16.1206 93.3788 15.8984 93.2772 15.7519C93.1743 15.6003 93.0002 15.5067 92.7548 15.471C92.5144 15.4341 92.1768 15.4695 91.7421 15.5774L91.5656 14.8807L96.7369 13.5973L96.9133 14.2941C96.4837 14.4007 96.1685 14.5245 95.9678 14.6656C95.7722 14.8053 95.6601 14.9673 95.6315 15.1515C95.6067 15.3294 95.6333 15.5723 95.7113 15.8803L97.2075 21.7875C97.3251 22.252 97.4322 22.5796 97.5289 22.7703C97.6255 22.9609 97.7884 23.0842 98.0174 23.14C98.2452 23.1908 98.5891 23.1591 99.0491 23.045C99.6304 22.9007 100.128 22.7317 100.541 22.538C100.957 22.338 101.302 22.0028 101.575 21.5326C101.852 21.056 101.936 20.4127 101.828 19.6024L102.526 19.4293Z" fill="#154AE1" />
    <path d="M127.689 20.7018L126.955 20.7135C126.839 20.2674 126.652 19.8693 126.397 19.5192C126.008 19.9369 125.56 20.2982 125.055 20.6032C124.549 20.9082 123.861 21.0677 122.992 21.0816C122.039 21.0968 121.15 20.8792 120.325 20.4288C119.505 19.9782 118.846 19.3428 118.349 18.5226C117.851 17.6971 117.594 16.7636 117.577 15.722C117.565 14.9825 117.684 14.2748 117.934 13.5989C118.189 12.9228 118.554 12.3258 119.031 11.8077C119.512 11.2895 120.086 10.8793 120.753 10.5769C121.426 10.2745 122.163 10.1168 122.965 10.104C124.288 10.0829 125.388 10.4977 126.266 11.3483C126.377 11.1226 126.484 10.7953 126.587 10.3665L127.29 10.3553L127.477 14.2512L126.727 14.2632C126.581 13.604 126.327 13.0194 125.965 12.5095C125.602 11.9996 125.174 11.6132 124.68 11.3502C124.192 11.0819 123.682 10.9521 123.15 10.9605C122.557 10.97 122.026 11.1426 121.557 11.4782C121.088 11.8087 120.724 12.3094 120.464 12.9803C120.209 13.6511 120.089 14.4838 120.105 15.4785C120.12 16.4471 120.245 17.2525 120.48 17.8947C120.714 18.5317 120.997 19.0116 121.331 19.3344C121.669 19.6572 122.006 19.8758 122.341 19.9902C122.676 20.0995 122.99 20.1518 123.281 20.1471C123.922 20.1369 124.495 19.9558 125 19.604C125.51 19.252 125.925 18.8131 126.244 18.2871C126.564 17.7558 126.774 17.2316 126.876 16.7143L127.625 16.7023L127.689 20.7018Z" fill="#154AE1" />
    <path d="M146.064 17.5786C145.922 18.5316 145.562 19.3924 144.984 20.1609C144.407 20.9244 143.635 21.4936 142.668 21.8688C141.707 22.2396 140.621 22.3368 139.41 22.1607C138.42 22.0167 137.573 21.7303 136.868 21.3015C136.163 20.8727 135.611 20.3555 135.211 19.75C134.817 19.1453 134.551 18.5067 134.415 17.8342C134.283 17.1624 134.265 16.5045 134.361 15.8606C134.5 14.9282 134.85 14.0791 135.412 13.3135C135.974 12.5478 136.733 11.9766 137.689 11.6C138.647 11.2182 139.739 11.1165 140.965 11.2949C142.084 11.4576 143.007 11.7788 143.736 12.2585C144.465 12.7382 145.007 13.2881 145.363 13.9082C145.718 14.5283 145.943 15.1583 146.037 15.7983C146.137 16.4339 146.146 17.0273 146.064 17.5786ZM143.563 17.1833C143.651 16.596 143.682 16.0322 143.658 15.4917C143.638 14.952 143.533 14.4526 143.344 13.9935C143.155 13.5291 142.86 13.1415 142.458 12.8305C142.058 12.5144 141.536 12.3094 140.891 12.2157C140.005 12.0868 139.279 12.2075 138.713 12.5778C138.153 12.9437 137.733 13.4458 137.453 14.0841C137.18 14.718 136.985 15.4265 136.868 16.2095C136.804 16.6422 136.765 17.0971 136.752 17.5741C136.739 18.0512 136.804 18.5527 136.946 19.0787C137.09 19.5996 137.374 20.0645 137.797 20.4735C138.221 20.8773 138.81 21.1339 139.562 21.2434C140.31 21.3521 140.941 21.2676 141.456 20.9899C141.977 20.7078 142.381 20.3323 142.667 19.8634C142.958 19.39 143.164 18.9278 143.284 18.4768C143.409 18.0266 143.502 17.5954 143.563 17.1833Z" fill="#154AE1" />
    <path d="M164.797 28.6688L159.759 26.9832L159.992 26.3031C160.426 26.4486 160.759 26.5133 160.99 26.4972C161.223 26.4763 161.397 26.3944 161.512 26.2517C161.634 26.1056 161.743 25.8897 161.841 25.6038L163.991 19.3209L157.41 26.1973L156.958 26.0461L155.901 16.614L153.86 22.579C153.752 22.8944 153.679 23.1392 153.641 23.3133C153.609 23.4891 153.617 23.651 153.665 23.7991C153.718 23.9487 153.834 24.0862 154.011 24.2114C154.19 24.3317 154.455 24.4505 154.806 24.5679L154.573 25.2479L150.854 24.0035L151.086 23.3235C151.442 23.4424 151.726 23.5046 151.939 23.5099C152.157 23.5169 152.33 23.4761 152.46 23.3876C152.589 23.2991 152.692 23.1768 152.767 23.0208C152.844 22.8599 152.937 22.6217 153.045 22.3063L154.987 16.6295C155.132 16.2058 155.215 15.8928 155.234 15.6907C155.254 15.4885 155.178 15.3068 155.008 15.1454C154.844 14.9807 154.525 14.8191 154.051 14.6604L154.284 13.9804L157.958 15.2099L158.872 23.3993L164.634 17.4435L168.227 18.6457L167.994 19.3258C167.377 19.1192 166.946 19.0765 166.7 19.1977C166.462 19.3156 166.269 19.5889 166.123 20.0176L163.967 26.3153C163.875 26.5863 163.829 26.8155 163.831 27.0029C163.833 27.1903 163.924 27.3663 164.105 27.531C164.292 27.6924 164.6 27.845 165.03 27.9888L164.797 28.6688Z" fill="#154AE1" />
    <path d="M182.237 37.896L177.602 35.2992L177.959 34.6755C178.359 34.8995 178.674 35.0253 178.905 35.0529C179.137 35.0759 179.324 35.0281 179.464 34.9095C179.611 34.789 179.76 34.5976 179.91 34.3355L183.21 28.5732L175.442 34.0886L175.026 33.8557L175.768 24.4031L172.634 29.8739C172.468 30.1631 172.351 30.3897 172.281 30.5535C172.215 30.7199 172.193 30.8802 172.212 31.0345C172.236 31.1914 172.324 31.3478 172.475 31.5039C172.628 31.6554 172.866 31.8216 173.188 32.0024L172.831 32.626L169.41 30.709L169.767 30.0853C170.094 30.2686 170.362 30.3828 170.57 30.4279C170.783 30.4755 170.961 30.4679 171.105 30.4053C171.249 30.3427 171.373 30.2419 171.476 30.1029C171.583 29.9594 171.719 29.7431 171.884 29.4538L174.866 24.2474C175.089 23.8587 175.229 23.5671 175.287 23.3724C175.344 23.1778 175.304 22.9853 175.167 22.7951C175.037 22.6028 174.754 22.3845 174.318 22.1401L174.675 21.5164L178.056 23.4105L177.407 31.6167L184.196 26.8513L187.502 28.7034L187.145 29.3271C186.577 29.0088 186.161 28.8862 185.897 28.9593C185.64 29.0303 185.399 29.2624 185.174 29.6556L181.866 35.4315C181.723 35.6801 181.635 35.8965 181.602 36.0807C181.568 36.2649 181.625 36.4547 181.771 36.65C181.924 36.8434 182.199 37.0508 182.594 37.2723L182.237 37.896Z" fill="#154AE1" />
    <path d="M201.419 40.3862C201.051 40.0878 200.751 39.915 200.52 39.8681C200.292 39.8244 200.095 39.866 199.929 39.9929C199.763 40.1198 199.546 40.3456 199.277 40.6705L196.784 43.6784C196.326 44.2319 195.96 44.6326 195.687 44.8806C195.421 45.1278 195.088 45.3265 194.686 45.4768C193.923 45.777 193.178 45.8067 192.451 45.5659C191.731 45.3243 191.117 44.9969 190.607 44.5836C190.231 44.2786 189.884 43.9136 189.566 43.4886C189.249 43.0709 189.012 42.6104 188.854 42.107C188.697 41.6036 188.68 41.0973 188.804 40.588C188.873 40.3087 188.965 40.0475 189.078 39.8044C189.195 39.5572 189.32 39.3404 189.455 39.1541C189.596 38.9671 189.786 38.7292 190.026 38.4404L192.83 35.0316C193.122 34.6787 193.257 34.3726 193.235 34.1134C193.217 33.8575 192.951 33.5213 192.438 33.1047L192.896 32.5513L197.047 35.9165L196.589 36.47C196.237 36.1846 195.944 36.0075 195.71 35.9387C195.48 35.8658 195.283 35.8742 195.121 35.964C194.962 36.0497 194.783 36.2128 194.583 36.4535L191.767 39.8524C191.478 40.2014 191.24 40.5213 191.053 40.8122C190.874 41.1025 190.739 41.3753 190.649 41.6309C190.517 42.0673 190.534 42.5166 190.699 42.9788C190.871 43.4402 191.155 43.8317 191.552 44.1531C191.977 44.4975 192.456 44.715 192.99 44.8057C193.531 44.8956 194.008 44.8335 194.422 44.6195C194.748 44.4546 195.04 44.249 195.299 44.0025C195.564 43.7553 195.855 43.4412 196.171 43.0601L198.603 40.1244C198.822 39.8597 198.977 39.6566 199.067 39.5151C199.157 39.3737 199.206 39.2253 199.213 39.07C199.223 38.9107 199.161 38.7401 199.028 38.5582C198.899 38.3796 198.686 38.1706 198.391 37.9312L198.85 37.3777L201.878 39.8328L201.419 40.3862Z" fill="#154AE1" />
    <path d="M213.549 53.1783C213.211 52.8024 212.93 52.5676 212.705 52.4736C212.485 52.3763 212.283 52.3736 212.1 52.4655C211.916 52.5575 211.656 52.7513 211.32 53.0471L205.013 58.593L204.533 58.0583L206.085 47.4661L201.702 51.3198C201.37 51.6121 201.145 51.8447 201.027 52.0176C200.917 52.1909 200.895 52.397 200.963 52.6358C201.034 52.8712 201.237 53.1748 201.571 53.5468L201.032 54.0214L198.4 51.0924L198.94 50.6178C199.253 50.9665 199.518 51.1839 199.736 51.2701C199.961 51.3567 200.163 51.3521 200.343 51.2563C200.53 51.1609 200.79 50.9671 201.123 50.6747L205.183 47.1047C205.511 46.8158 205.749 46.5895 205.896 46.4257C206.046 46.2657 206.152 46.0995 206.214 45.927C206.28 45.7511 206.283 45.5549 206.221 45.3385C206.167 45.1225 206.036 44.8707 205.826 44.5832L206.366 44.1086L208.428 46.4041L207.109 55.5954L210.74 52.402C211.038 52.1407 211.245 51.9199 211.363 51.7397C211.489 51.5599 211.522 51.3509 211.462 51.1125C211.405 50.878 211.22 50.5864 210.907 50.2377L211.446 49.7631L214.088 52.7036L213.549 53.1783Z" fill="#154AE1" />
    <path d="M212.294 68.4046L209.254 63.9715L209.851 63.5709C210.104 63.9404 210.33 64.1964 210.529 64.3389C210.732 64.4786 210.924 64.5285 211.105 64.4886C211.289 64.4529 211.513 64.3466 211.777 64.1695L217.304 60.4603C217.685 60.2049 217.898 59.9455 217.945 59.6821C217.995 59.4229 217.831 59.0185 217.454 58.4686L218.051 58.0681L221.09 62.5013L220.493 62.9018C220.24 62.5324 220.012 62.2778 219.809 62.1381C219.606 61.9985 219.412 61.9464 219.228 61.9821C219.051 62.0191 218.831 62.1261 218.567 62.3032L213.04 66.0124C212.79 66.1807 212.612 66.3407 212.508 66.4923C212.403 66.644 212.374 66.8361 212.42 67.0688C212.468 67.3057 212.625 67.6175 212.89 68.0041L212.294 68.4046Z" fill="#154AE1" />
    <path d="M226.546 78.4959L226.207 77.8356C226.763 77.4807 227.129 77.1335 227.306 76.7939C227.485 76.459 227.549 76.1616 227.498 75.9018C227.446 75.642 227.345 75.3638 227.192 75.0673L226.579 73.8718L219.647 77.3553C219.372 77.4933 219.173 77.6286 219.048 77.7614C218.927 77.8919 218.877 78.0801 218.898 78.326C218.919 78.572 219.031 78.8919 219.233 79.2858L218.591 79.6085L216.165 74.8822L216.807 74.5595C217.104 75.1387 217.38 75.4696 217.633 75.5522C217.886 75.6348 218.217 75.5732 218.627 75.3674L225.558 71.884L225.045 70.8831C224.843 70.4893 224.642 70.1789 224.444 69.9522C224.25 69.7231 223.96 69.5803 223.574 69.5237C223.195 69.4694 222.705 69.5757 222.105 69.8426L221.766 69.1823L224.453 67.8317L229.234 77.1453L226.546 78.4959Z" fill="#154AE1" />
    <path d="M234.634 93.9849C234.524 93.7194 234.387 93.5121 234.222 93.3629C234.059 93.2187 233.828 93.0937 233.53 92.9879C233.233 92.8871 232.759 92.7479 232.108 92.5705L228.131 91.5203L225.745 92.2943C225.473 92.3827 225.264 92.4806 225.118 92.588C224.974 92.7004 224.887 92.8765 224.857 93.1163C224.832 93.3545 224.893 93.6961 225.04 94.141L224.356 94.3629L222.681 89.305L223.365 89.0832C223.504 89.5035 223.648 89.807 223.798 89.9939C223.954 90.1841 224.125 90.2848 224.31 90.2961C224.496 90.3122 224.74 90.2713 225.043 90.1732L227.294 89.4426L230.672 85.554C230.695 85.5245 230.72 85.4918 230.747 85.4559C230.78 85.4232 230.8 85.4004 230.806 85.3872C231.091 85.054 231.259 84.7831 231.311 84.5747C231.364 84.3712 231.343 84.1015 231.248 83.7654L231.932 83.5436L233.492 88.2528L232.808 88.4747C232.73 88.2374 232.66 88.0519 232.599 87.9183C232.539 87.7847 232.461 87.6838 232.368 87.6157C232.275 87.5526 232.16 87.5435 232.021 87.5885C231.927 87.619 231.823 87.6857 231.709 87.7884C231.595 87.8911 231.39 88.1083 231.093 88.4398L228.959 90.8655L231.816 91.5894C232.432 91.7451 232.86 91.7845 233.097 91.7073C233.41 91.606 233.572 91.4412 233.584 91.2128C233.596 90.9843 233.542 90.6897 233.423 90.3287L234.106 90.1069L235.317 93.7631L234.634 93.9849Z" fill="#154AE1" />
    <path d="M228.918 120.645L228.857 119.913C229.294 119.767 229.679 119.556 230.011 119.277C229.568 118.917 229.177 118.494 228.839 118.01C228.501 117.525 228.295 116.85 228.223 115.983C228.143 115.033 228.301 114.132 228.695 113.279C229.089 112.431 229.679 111.732 230.464 111.182C231.254 110.631 232.168 110.313 233.206 110.228C233.943 110.167 234.658 110.239 235.349 110.444C236.041 110.654 236.661 110.979 237.21 111.42C237.759 111.866 238.207 112.412 238.554 113.058C238.901 113.708 239.108 114.433 239.175 115.233C239.285 116.551 238.945 117.676 238.156 118.609C238.388 118.705 238.722 118.79 239.157 118.864L239.215 119.564L235.34 120.008L235.278 119.26C235.926 119.071 236.492 118.779 236.976 118.384C237.461 117.989 237.818 117.536 238.047 117.026C238.282 116.521 238.377 116.004 238.333 115.474C238.283 114.883 238.075 114.364 237.709 113.919C237.348 113.473 236.823 113.142 236.136 112.927C235.45 112.717 234.611 112.652 233.619 112.734C232.654 112.813 231.859 112.991 231.234 113.267C230.614 113.542 230.154 113.857 229.854 114.211C229.555 114.57 229.36 114.92 229.268 115.262C229.182 115.604 229.15 115.92 229.175 116.211C229.228 116.849 229.447 117.408 229.832 117.889C230.218 118.375 230.684 118.76 231.23 119.044C231.782 119.328 232.319 119.503 232.842 119.57L232.905 120.318L228.918 120.645Z" fill="#154AE1" />
    <path d="M233.207 138.606C232.246 138.531 231.364 138.232 230.559 137.709C229.76 137.186 229.143 136.456 228.706 135.517C228.275 134.585 228.108 133.509 228.206 132.289C228.287 131.292 228.519 130.427 228.902 129.695C229.285 128.962 229.766 128.375 230.345 127.935C230.923 127.5 231.544 127.191 232.207 127.008C232.869 126.83 233.525 126.767 234.174 126.818C235.113 126.892 235.984 127.182 236.784 127.689C237.584 128.196 238.203 128.914 238.64 129.841C239.083 130.769 239.254 131.851 239.154 133.087C239.063 134.213 238.802 135.157 238.369 135.917C237.937 136.677 237.423 137.256 236.826 137.653C236.23 138.05 235.615 138.318 234.982 138.456C234.354 138.6 233.762 138.65 233.207 138.606ZM233.441 136.086C234.033 136.132 234.598 136.124 235.136 136.062C235.674 136.005 236.166 135.866 236.612 135.645C237.064 135.425 237.432 135.104 237.717 134.682C238.007 134.261 238.178 133.726 238.23 133.077C238.302 132.184 238.135 131.468 237.729 130.929C237.328 130.396 236.8 130.013 236.145 129.778C235.495 129.55 234.775 129.404 233.986 129.342C233.549 129.308 233.093 129.301 232.616 129.321C232.139 129.34 231.642 129.44 231.126 129.619C230.615 129.798 230.169 130.113 229.788 130.564C229.412 131.015 229.193 131.619 229.132 132.377C229.071 133.13 229.196 133.754 229.506 134.248C229.821 134.748 230.222 135.125 230.708 135.377C231.2 135.635 231.674 135.808 232.132 135.897C232.59 135.99 233.026 136.053 233.441 136.086Z" fill="#154AE1" />
    <path d="M228.133 153.699L224.707 152.808L226.948 143.641L227.647 143.808C227.493 144.44 227.484 144.869 227.622 145.095C227.76 145.321 228.052 145.487 228.498 145.593L234.972 147.14C235.271 147.211 235.508 147.236 235.685 147.214C235.867 147.193 236.031 147.082 236.177 146.882C236.321 146.686 236.447 146.37 236.553 145.935L237.252 146.102L235.987 151.278L235.288 151.111C235.393 150.681 235.43 150.344 235.398 150.101C235.365 149.863 235.273 149.689 235.124 149.578C234.978 149.473 234.75 149.384 234.441 149.31L228.514 147.894C228.048 147.783 227.708 147.726 227.494 147.723C227.281 147.72 227.096 147.807 226.94 147.984C226.789 148.162 226.658 148.482 226.545 148.942C226.403 149.524 226.322 150.043 226.301 150.498C226.285 150.96 226.421 151.421 226.711 151.881C227.005 152.348 227.535 152.721 228.303 153.001L228.133 153.699Z" fill="#154AE1" />
    <path d="M222.746 168.138L219.482 166.768L223.027 158.022L223.695 158.287C223.451 158.89 223.38 159.313 223.484 159.556C223.588 159.799 223.853 160.005 224.279 160.174L230.467 162.627C230.753 162.74 230.985 162.798 231.163 162.802C231.346 162.807 231.525 162.721 231.698 162.543C231.869 162.37 232.039 162.076 232.207 161.661L232.875 161.926L230.874 166.864L230.206 166.599C230.372 166.188 230.457 165.861 230.461 165.616C230.463 165.376 230.397 165.19 230.265 165.059C230.135 164.935 229.923 164.814 229.628 164.697L223.963 162.452C223.517 162.275 223.189 162.17 222.978 162.137C222.766 162.104 222.571 162.163 222.391 162.316C222.216 162.471 222.039 162.768 221.861 163.207C221.636 163.762 221.481 164.264 221.395 164.711C221.312 165.166 221.38 165.641 221.601 166.138C221.824 166.641 222.295 167.085 223.016 167.472L222.746 168.138Z" fill="#154AE1" />
    <path d="M215.264 181.643L212.284 179.836L217.056 171.694L217.68 172.052C217.35 172.613 217.22 173.022 217.288 173.277C217.355 173.532 217.588 173.773 217.986 174.001L223.76 177.312C224.022 177.462 224.242 177.552 224.418 177.581C224.596 177.617 224.782 177.561 224.977 177.415C225.173 177.275 225.389 177.006 225.623 176.606L226.247 176.963L221.802 184.546L219.346 183.299L219.709 182.679C220.319 182.843 220.791 182.898 221.125 182.843C221.461 182.795 221.721 182.671 221.905 182.471C222.091 182.277 222.317 181.953 222.583 181.499L223.586 179.787L220.34 177.926L219.795 178.856C219.608 179.175 219.495 179.429 219.457 179.617C219.424 179.808 219.468 179.981 219.589 180.134C219.71 180.288 219.934 180.473 220.259 180.69L219.88 181.337L216.824 179.584L217.187 178.964C217.536 179.14 217.811 179.238 218.011 179.257C218.216 179.278 218.392 179.226 218.538 179.1C218.682 178.978 218.847 178.757 219.034 178.438L219.587 177.495L217.425 176.255C217.064 176.048 216.794 175.905 216.617 175.828C216.439 175.75 216.271 175.717 216.113 175.728C215.958 175.747 215.803 175.83 215.651 175.976C215.496 176.128 215.322 176.367 215.13 176.695L214.7 177.43C214.518 177.74 214.384 178.056 214.297 178.379C214.213 178.709 214.254 179.102 214.421 179.558C214.593 180.016 214.998 180.501 215.635 181.01L215.264 181.643Z" fill="#154AE1" />
    <path d="M204.966 196.211C205.132 195.958 205.238 195.749 205.284 195.586C205.331 195.43 205.309 195.279 205.219 195.134C205.133 194.992 204.96 194.818 204.699 194.61L202.757 193.061C203.234 192.475 203.673 191.78 204.074 190.974C204.366 190.394 204.591 189.964 204.751 189.686C204.907 189.404 205.122 189.095 205.395 188.76C206.119 187.872 206.949 187.278 207.885 186.978C208.821 186.679 209.748 186.633 210.668 186.84C211.584 187.051 212.391 187.434 213.087 187.989C213.885 188.626 214.459 189.393 214.809 190.291C215.162 191.193 215.265 192.114 215.117 193.055C214.972 193.999 214.589 194.852 213.967 195.615C213.21 196.544 212.197 197.132 210.928 197.378C211.027 197.611 211.207 197.877 211.466 198.177L210.988 198.765L208.226 196.663L208.68 196.106C209.16 196.349 209.667 196.49 210.2 196.528C210.733 196.567 211.242 196.49 211.728 196.298C212.211 196.11 212.623 195.806 212.965 195.386C213.215 195.079 213.405 194.734 213.536 194.352C213.67 193.973 213.708 193.547 213.65 193.074C213.592 192.609 213.398 192.114 213.066 191.589C212.731 191.069 212.225 190.539 211.549 190C210.971 189.539 210.366 189.157 209.733 188.852C209.101 188.548 208.442 188.429 207.757 188.495C207.071 188.562 206.452 188.934 205.9 189.612C205.465 190.145 205.22 190.615 205.163 191.023C205.11 191.434 205.173 191.777 205.352 192.053C205.527 192.332 205.765 192.592 206.067 192.833C206.352 193.06 206.577 193.203 206.744 193.263C206.907 193.326 207.083 193.304 207.273 193.195C207.459 193.09 207.684 192.876 207.947 192.553L208.509 193.002L205.528 196.659L204.966 196.211Z" fill="#154AE1" />
    <path d="M193.479 206.065L191.182 203.445L198.19 197.124L198.677 197.652C198.193 198.089 197.946 198.438 197.933 198.702C197.921 198.965 198.07 199.265 198.381 199.602L202.892 204.497C203.097 204.719 203.279 204.871 203.438 204.951C203.597 205.039 203.791 205.043 204.021 204.962C204.251 204.888 204.538 204.696 204.882 204.386L205.369 204.914L198.842 210.801L196.874 208.873L197.408 208.391C197.941 208.731 198.375 208.925 198.71 208.974C199.045 209.03 199.33 208.99 199.566 208.854C199.802 208.725 200.115 208.485 200.506 208.133L201.979 206.804L199.443 204.052L198.642 204.774C198.368 205.022 198.184 205.229 198.091 205.397C198.002 205.569 197.992 205.747 198.061 205.93C198.13 206.113 198.288 206.356 198.533 206.661L197.976 207.163L195.588 204.572L196.122 204.091C196.402 204.364 196.635 204.54 196.821 204.618C197.009 204.7 197.193 204.703 197.371 204.627C197.544 204.555 197.769 204.394 198.043 204.147L198.855 203.414L197.167 201.582C196.884 201.275 196.67 201.058 196.524 200.93C196.378 200.803 196.228 200.72 196.074 200.684C195.919 200.655 195.747 200.687 195.558 200.781C195.364 200.879 195.126 201.055 194.844 201.309L194.212 201.88C193.945 202.12 193.721 202.381 193.542 202.663C193.362 202.951 193.282 203.338 193.305 203.823C193.33 204.312 193.57 204.895 194.024 205.573L193.479 206.065Z" fill="#154AE1" />
    <path d="M56.3948 60.924C91.2188 68.0158 106.122 63.2285 125 42.5761C143.878 63.2285 158.781 68.0158 193.605 60.924C194.21 60.801 194.806 61.2378 194.873 61.858C201.875 126.186 194.723 161.611 125 216.587C55.2768 161.611 48.1245 126.186 55.1267 61.858C55.1942 61.2378 55.7905 60.801 56.3948 60.924Z" fill="white" />
    <path d="M125.524 42C106.395 63.1391 91.5403 68.0813 56.3948 60.924C55.7905 60.801 55.1942 61.2378 55.1267 61.858C48.107 126.347 55.3126 161.788 125.524 217M124.476 42C143.605 63.1391 158.46 68.0813 193.605 60.924C194.21 60.801 194.806 61.2378 194.873 61.858C201.893 126.347 194.687 161.788 124.476 217" stroke="#525252" />
    <path d="M143.658 74.9438L140.854 74.9437V72.8394C140.854 72.3577 140.368 71.9483 139.71 71.8771C139.596 71.8646 136.864 71.5769 133.575 72.0108C129.908 72.4946 126.983 73.6875 125 75.4908C123.016 73.6875 120.092 72.4946 116.425 72.0108C113.136 71.577 110.404 71.8646 110.29 71.8771C109.632 71.9484 109.146 72.3578 109.146 72.8394V74.9437H106.342C105.601 74.9437 105 75.3795 105 75.9169V94.2547C105 94.5698 105.21 94.8654 105.565 95.048C105.919 95.2306 106.373 95.2774 106.784 95.1737C106.884 95.1485 116.943 92.6597 124.443 95.1401C124.797 95.2571 125.203 95.2571 125.557 95.1401C133.036 92.6668 143.116 95.1486 143.216 95.1737C143.36 95.2101 143.509 95.2279 143.658 95.2279C143.933 95.2279 144.205 95.1666 144.435 95.0481C144.79 94.8655 145 94.5699 145 94.2548V75.917C145 75.3796 144.399 74.9438 143.658 74.9438ZM107.685 92.9527V76.89H109.146V89.8498C109.146 90.1325 109.317 90.4011 109.612 90.5859C109.907 90.7707 110.299 90.8536 110.685 90.8123C110.759 90.8045 116.59 90.2241 120.85 92.3433C115.603 91.6927 110.35 92.4452 107.685 92.9527ZM123.658 91.4657C121.781 90.2365 119.337 89.4054 116.425 89.0213C115.024 88.8363 113.723 88.7824 112.684 88.7824C112.375 88.7824 112.089 88.7872 111.831 88.7947V73.7331H111.831C114.41 73.6487 120.686 73.8487 123.658 77.5008V91.4657ZM126.342 77.5009C129.303 73.8644 135.589 73.6553 138.169 73.7355V88.7947C137.04 88.7617 135.392 88.7815 133.575 89.0213C130.663 89.4054 128.219 90.2364 126.342 91.4657V77.5009ZM129.145 92.3439C133.406 90.2235 139.24 90.8044 139.313 90.8122C139.699 90.8543 140.091 90.7719 140.387 90.5872C140.684 90.4022 140.854 90.1331 140.854 89.8498V76.8901H142.315V92.9527C139.649 92.445 134.394 91.6922 129.145 92.3439Z" fill="#154AE1" />
    <path d="M66.5853 114.967C79.4574 118.074 82.9672 116.801 86.634 115.318C87.0568 113.55 90.6284 112.132 95.1863 111.889C95.1313 111.696 95.0998 111.489 95.0998 111.273C95.0998 111.26 95.1012 111.248 95.1013 111.235C94.7269 110.896 94.4956 110.43 94.4956 109.914C94.4956 108.88 95.4273 108.042 96.5771 108.042C97.7254 108.042 98.6566 108.88 98.6566 109.914C98.6566 110.429 98.4257 110.895 98.0525 111.234C98.0526 111.247 98.0541 111.26 98.0541 111.273C98.0541 111.49 98.0225 111.696 97.9675 111.889C102.824 112.148 106.562 113.742 106.562 115.67C106.562 115.745 106.555 115.819 106.544 115.894C106.547 115.892 106.551 115.89 106.555 115.889C106.555 115.889 106.986 116.294 107.486 116.771C107.8 117.032 108.093 117.305 108.363 117.588C109.432 116.04 110.029 114.174 111.743 112.875C118.153 108.234 125.414 117.68 117.613 120.952C116.505 121.427 114.957 122.167 113.629 123.044C114.42 123.401 114.972 124.12 115.02 124.96C115.056 125.205 115.02 125.461 114.925 125.711C114.62 126.659 113.65 127.353 112.499 127.353C112.406 127.353 112.314 127.348 112.223 127.339C111.354 127.276 110.41 126.777 109.591 125.569C108.175 128.059 105.141 130.033 101.327 130.942C102.06 131.281 102.677 131.694 103.134 132.164C104.745 132.779 105.738 133.619 105.738 134.546C105.738 136.431 101.636 137.959 96.5771 137.959C91.5161 137.959 87.4149 136.431 87.4149 134.546C87.4149 133.619 88.4087 132.779 90.0196 132.164C90.3732 131.8 90.8248 131.471 91.3501 131.183C77.8121 129.489 75.5908 121.147 61.2147 116.831C60.1222 116.275 63.3996 114.336 66.5853 114.967ZM110.358 121.286C112.749 119.565 117.192 118.61 117.279 116.359C117.334 114.43 114.249 114.069 112.675 115.037C111.105 115.905 110.265 117.361 109.097 118.461C109.738 119.334 110.172 120.285 110.358 121.286ZM89.1541 118.693C91.2519 119.495 94.0714 119.937 97.0928 119.937C101.845 119.937 105.291 118.992 106.776 117.902C106.596 117.73 106.416 117.558 106.251 117.401C103.821 118.359 100.555 118.898 97.0927 118.898C92.8379 118.898 88.9627 118.097 86.4993 116.732C86.4985 116.732 86.4978 116.732 86.4969 116.732C86.6308 117.362 87.6438 118.116 89.1541 118.693Z" fill="#154AE1" />
    <path d="M147.697 133.809L147.508 139.157L149.562 139.98L151.475 135.201C151.169 135.293 150.85 135.358 150.514 135.358C149.33 135.358 148.294 134.738 147.697 133.809Z" fill="#154AE1" />
    <path d="M169.487 135.358C169.109 135.358 168.752 135.282 168.413 135.166L170.34 139.98L172.394 139.157L172.21 133.945C171.602 134.797 170.611 135.358 169.487 135.358Z" fill="#154AE1" />
    <path d="M147.343 145L148.49 141.648L147.442 141.133L147.343 145Z" fill="#154AE1" />
    <path d="M173.235 144.554C173.528 144.43 173.693 144.159 173.605 143.95L172.502 141.04L171.443 141.488L172.545 144.398C172.634 144.607 172.943 144.677 173.235 144.554Z" fill="#154AE1" />
    <path d="M150.514 133.709C151.453 133.709 152.215 132.947 152.215 132.008C152.215 131.068 151.453 130.307 150.514 130.307C149.574 130.307 148.813 131.068 148.813 132.008C148.813 132.947 149.574 133.709 150.514 133.709Z" fill="#154AE1" />
    <path d="M169.487 133.709C170.426 133.709 171.187 132.947 171.187 132.008C171.187 131.068 170.426 130.307 169.487 130.307C168.547 130.307 167.786 131.068 167.786 132.008C167.786 132.947 168.547 133.709 169.487 133.709Z" fill="#154AE1" />
    <path d="M160.206 104.768C160.7 104.768 161.18 104.819 161.65 104.905V103.599H163.3V97H157.525V103.599H159.175V104.842C159.513 104.798 159.856 104.768 160.206 104.768Z" fill="#154AE1" />
    <path d="M153.813 112.811C153.813 113.98 154.132 115.072 154.679 116.014C155.428 117.303 156.613 118.303 158.034 118.817C158.712 119.063 159.442 119.204 160.206 119.204C160.803 119.204 161.378 119.116 161.925 118.963C163.355 118.564 164.58 117.684 165.417 116.504C166.16 115.461 166.599 114.188 166.599 112.811C166.599 109.28 163.737 106.418 160.206 106.418C156.676 106.418 153.813 109.28 153.813 112.811ZM160.206 109.924C161.801 109.924 163.093 111.217 163.093 112.811C163.093 114.406 161.801 115.698 160.206 115.698C158.612 115.698 157.319 114.406 157.319 112.811C157.319 111.217 158.612 109.924 160.206 109.924Z" fill="#154AE1" />
    <path d="M145.152 123.397V125.872H147.626V125.047H151.064L149.557 128.812C149.862 128.72 150.179 128.656 150.514 128.656C151.76 128.656 152.836 129.347 153.414 130.359L155.54 125.047H159.175V127.599C159.175 128.012 159.51 128.347 159.923 128.347H160.078C160.49 128.347 160.825 128.012 160.825 127.599V125.047H164.362L166.53 130.463C167.091 129.394 168.198 128.656 169.487 128.656C169.78 128.656 170.061 128.706 170.332 128.777L168.839 125.047H172.374V125.872H174.849V123.397H172.374V124.222H168.508L166.116 118.247C165.157 119.289 163.932 120.082 162.543 120.505L164.032 124.222H160.825V122.495C160.825 122.082 160.49 121.747 160.078 121.747H159.923C159.51 121.747 159.175 122.082 159.175 122.495V124.222H155.87L157.422 120.347C156.049 119.838 154.849 118.969 153.946 117.848L151.394 124.222H147.626V123.397H145.152Z" fill="#154AE1" />
    <path d="M119.371 149.221C119.162 149.228 118.92 149.282 118.625 149.394C114.283 151.051 107.673 155.411 101.815 157.364C102.854 158.073 103.986 158.699 105.159 159.196C106.47 158.533 107.75 157.873 108.835 157.212C110.164 156.402 111.191 155.559 111.618 154.871L112.882 155.824C112.18 156.953 110.988 157.828 109.576 158.689C108.874 159.117 108.114 159.533 107.33 159.944C108.049 160.135 108.772 160.27 109.487 160.335C109.81 160.365 110.131 160.38 110.449 160.383C111.966 159.347 113.401 158.009 113.863 157.047L115.216 157.837C114.885 158.527 114.385 159.19 113.787 159.809C115.283 159.229 116.638 158.181 117.762 156.528L118.455 155.511L119.036 156.609C119.486 157.46 120.093 158.171 120.781 158.784C121.292 158.698 121.742 158.639 122.203 158.61V155.341C121.275 154.569 120.672 153.344 120.672 151.972C120.672 151.418 120.771 150.869 120.965 150.358C120.722 149.983 120.472 149.688 120.22 149.507C120.012 149.356 119.806 149.255 119.555 149.228C119.494 149.221 119.433 149.219 119.371 149.221V149.221ZM129.541 149.221C129.508 149.222 129.476 149.224 129.445 149.228C129.194 149.255 128.988 149.356 128.78 149.507C128.528 149.688 128.277 149.983 128.035 150.358C128.229 150.869 128.328 151.418 128.328 151.972C128.328 153.344 127.725 154.569 126.797 155.341V158.61C127.276 158.64 127.797 158.708 128.219 158.784C128.907 158.171 129.514 157.46 129.964 156.609L130.545 155.511L131.237 156.528C132.362 158.181 133.717 159.229 135.213 159.809C134.615 159.19 134.115 158.527 133.784 157.837L135.137 157.047C135.599 158.009 137.034 159.347 138.551 160.383C138.872 160.38 139.193 160.364 139.513 160.335C140.228 160.27 140.951 160.135 141.67 159.944C140.886 159.533 140.126 159.117 139.424 158.689C138.012 157.828 136.82 156.953 136.118 155.824L137.382 154.871C137.809 155.559 138.836 156.402 140.165 157.212C141.25 157.873 142.53 158.532 143.841 159.196C145.014 158.699 146.146 158.073 147.185 157.364C141.327 155.411 134.717 151.051 130.375 149.394C130.038 149.266 129.77 149.214 129.541 149.221V149.221ZM124.5 149.531C123.222 149.531 122.203 150.654 122.203 152.062C122.203 153.47 123.222 154.594 124.5 154.594C125.778 154.594 126.797 153.47 126.797 152.062C126.797 150.654 125.778 149.531 124.5 149.531ZM123.734 156.105V158.704C124.002 158.768 124.286 158.874 124.5 159.009C124.757 158.852 125.005 158.77 125.266 158.704V156.105C125.018 156.161 124.762 156.191 124.5 156.191C124.238 156.191 123.982 156.161 123.734 156.105ZM122.534 160.288C122.384 160.29 122.235 160.297 122.086 160.309C120.855 160.408 119.33 160.844 118.703 161.172C117.276 161.917 116.679 162.626 116.385 163.28C116.092 163.934 116.078 164.63 116.078 165.472C116.078 166.456 116.49 167.183 117.241 167.878C117.992 168.574 119.074 169.159 120.188 169.645C122.245 170.835 124.415 172.064 126.126 173.44C126.597 173.806 127.197 174.037 127.657 174.302C128.109 173.779 128.328 173.297 128.328 172.855C128.328 172.591 128.264 172.3 128.147 171.992C126.978 169.558 124.781 168.383 122.471 166.98L122.465 166.987C121.473 166.562 120.55 166.316 119.906 166.316L119.564 164.717C121.079 163.882 122.189 163.182 122.85 162.515C123.497 161.863 123.737 161.329 123.731 160.479C123.348 160.293 122.912 160.283 122.534 160.288V160.288ZM126.466 160.288C126.067 160.302 125.576 160.294 125.269 160.478C125.263 161.329 125.503 161.863 126.15 162.515C126.811 163.182 127.921 163.882 129.436 164.717L129.094 166.316C128.332 166.316 127.179 166.661 125.981 167.238C126.943 167.916 127.857 168.707 128.613 169.728C128.679 169.7 128.745 169.674 128.812 169.645C129.926 169.159 131.008 168.574 131.759 167.878C132.51 167.183 132.922 166.456 132.922 165.472C132.922 164.63 132.908 163.934 132.615 163.28C132.321 162.626 131.724 161.917 130.297 161.172C129.67 160.844 128.145 160.408 126.914 160.309C126.765 160.297 126.616 160.29 126.466 160.288V160.288ZM124.5 163.007C124.317 163.279 124.111 163.532 123.884 163.76C123.836 163.809 123.785 163.857 123.734 163.906V165.714C123.993 165.844 124.249 165.982 124.501 166.128C124.752 165.982 125.007 165.845 125.266 165.714V163.906C125.215 163.858 125.165 163.809 125.116 163.76C124.889 163.532 124.682 163.279 124.5 163.007V163.007ZM120.908 171.855C120.755 172.214 120.672 172.553 120.672 172.855C120.672 173.365 120.962 173.927 121.564 174.544C122.166 175.161 123.035 175.774 123.927 176.343C124.818 176.912 125.729 177.438 126.46 177.961C126.826 178.223 127.148 178.48 127.417 178.785C127.685 179.09 127.945 179.482 127.945 180.027C127.945 180.475 127.739 180.901 127.496 181.166C127.253 181.432 126.983 181.595 126.704 181.743C126.485 181.859 126.254 181.965 126.019 182.07C126.647 182.578 127.224 183.13 127.691 183.676C127.951 183.545 128.214 183.413 128.474 183.275C129.142 182.919 129.772 182.523 130.19 182.089C130.608 181.655 130.816 181.248 130.816 180.66C130.816 179.611 130.472 178.82 129.899 178.097C129.326 177.374 128.512 176.756 127.663 176.225C126.814 175.694 125.941 175.254 125.229 174.808C124.872 174.585 124.554 174.366 124.28 174.082C124.266 174.068 124.253 174.052 124.239 174.037C123.235 173.294 121.942 172.427 120.908 171.855V171.855ZM121.138 176.353C120.362 176.855 119.629 177.431 119.101 178.097C118.528 178.819 118.184 179.611 118.184 180.66C118.184 181.248 118.392 181.655 118.81 182.089C119.228 182.523 119.858 182.919 120.526 183.275C120.779 183.409 121.034 183.538 121.286 183.666C123.109 184.698 124.798 185.681 126.453 186.177C126.839 186.032 126.917 185.636 126.829 185.151C125.408 183.575 123.977 182.641 122.296 181.743C122.016 181.595 121.747 181.432 121.504 181.166C121.261 180.901 121.055 180.475 121.055 180.027C121.055 179.482 121.315 179.09 121.583 178.785C121.852 178.48 122.174 178.223 122.54 177.961C122.678 177.863 122.818 177.767 122.959 177.674C122.334 177.27 121.706 176.837 121.138 176.353V176.353ZM124.5 178.64C124.227 178.811 123.968 178.975 123.734 179.13V180.564C123.806 180.601 123.878 180.64 123.95 180.678C124.127 180.759 124.309 180.843 124.5 180.938C124.769 180.804 125.028 180.686 125.266 180.581V179.13C125.012 178.963 124.757 178.8 124.5 178.64V178.64ZM122.797 186.426C122.853 186.873 123.042 187.282 123.354 187.707C123.731 188.219 124.28 188.718 124.859 189.19C125.438 189.661 126.042 190.101 126.548 190.578C127.053 191.055 127.562 191.611 127.562 192.472C127.562 193.516 127.006 194.364 126.321 195.32C125.637 196.276 124.757 197.275 123.88 198.196C123.684 198.402 123.498 198.583 123.305 198.779C124.093 198.325 124.91 197.774 125.68 197.157C127.824 195.439 129.477 193.185 129.477 191.628C129.477 191.157 129.317 190.78 129 190.367C128.683 189.954 128.208 189.548 127.699 189.156C127.19 188.765 126.651 188.394 126.19 187.958C126.137 187.907 126.084 187.854 126.031 187.8C124.788 187.436 123.744 186.95 122.797 186.426ZM122.043 188.596C121.797 188.785 121.546 188.968 121.301 189.156C120.792 189.548 120.317 189.954 120 190.367C119.683 190.78 119.523 191.157 119.523 191.628C119.523 192.4 119.903 193.352 120.606 194.329C121.218 195.178 122.055 196.033 122.982 196.806C123.146 196.633 123.308 196.458 123.468 196.281C123.201 195.962 122.946 195.643 122.715 195.328C122.012 194.373 121.437 193.529 121.437 192.472C121.437 191.611 121.947 191.055 122.452 190.578C122.69 190.354 122.951 190.137 123.22 189.922C122.845 189.578 122.481 189.2 122.164 188.769C122.123 188.713 122.083 188.655 122.043 188.596ZM124.499 190.987C124.222 191.206 123.958 191.416 123.734 191.606V194.024C123.788 194.104 123.845 194.185 123.904 194.266C124.091 194.52 124.3 194.784 124.523 195.052C124.738 194.787 124.94 194.526 125.119 194.275C125.17 194.203 125.219 194.132 125.266 194.061V191.606C125.041 191.415 124.778 191.208 124.499 190.987Z" fill="#154AE1" />
</svg>