<svg aria-hidden="true" viewBox="0 0 48 42" fill="none" xmlns="http://www.w3.org/2000/svg">
    <path d="M1 7L21 22V42L1 27V7Z" fill="#D7904C" />
    <path d="M1.00001 6.99998L26 2L46 17L21 22L1.00001 6.99998Z" fill="#E5A961" />
    <path d="M21 22L46 17L46 37L21 42L21 22Z" fill="#F7C883" />
    <path d="M12.4 4.69999L16 4L36 19L32 19.8L12.4 4.69999Z" fill="#F5DDB5" />
    <path d="M32 19.8L36 19L36 21.6L32 22.5L32 19.8Z" fill="#FFE7CA" />
    <path
        d="M22.7889 34.4686L23.4074 34.3455L24.8619 37.6784L24.9121 37.6684L26.3665 33.7569L26.9851 33.6339V37.9975L26.5003 38.094V34.7786L26.4585 34.7869L25.121 38.3683L24.6529 38.4614L23.3155 35.4121L23.2737 35.4204V38.7358L22.7889 38.8322V34.4686ZM27.7902 33.9425V33.4738L31 32.8353V33.304L29.6542 33.5717V37.4666L29.1359 37.5697V33.6748L27.7902 33.9425Z"
        fill="black" />
</svg>