<svg aria-hidden="true" viewBox="0 0 41 28" fill="none" xmlns="http://www.w3.org/2000/svg">
    <g clip-path="url(#clip0_73_55)">
        <path
            d="M39.85 25.37C39.15 25.32 38.45 25.45 37.73 25.43C35.53 25.49 33.3 25.13 31.23 24.33C31.06 24.23 30.83 24.18 30.73 23.97C30.38 23.3 30.23 22.57 30.06 21.83C30.89 20.73 31.1 19.33 31.01 18C30.86 15.86 30.31 13.78 29.71 11.72C29.01 12.64 28.58 13.72 28.28 14.82C27.24 14.39 26.15 14.09 25.05 13.85C25.03 14.22 25.02 14.58 25.02 14.95C26.07 15.25 27.1 15.59 28.09 16.05C27.97 17.8 28.29 19.6 29.19 21.13C29.69 21.88 29.74 22.81 29.99 23.66C27.73 22.66 25.92 20.66 25.15 18.33C24.55 16.36 24.58 14.23 24.89 12.21C25.02 11.71 25.05 11.11 25.37 10.67C26.11 10.47 26.9 10.21 27.67 10.39C29.79 10.72 31.93 10.05 33.75 8.99C34.65 8.44 35.55 7.79 36.2 6.93C35.06 6.97 33.92 7.1 32.8 7.23C31.38 7.41 29.93 7.68 28.72 8.48C28.15 8.82 27.7 9.32 27.15 9.68C26.63 9.94 26.03 9.98 25.47 10.1C26.15 8.4 27.29 6.93 28.73 5.82C30.23 6.14 31.73 5.52 32.98 4.75C34.8 3.65 36.38 2.22 37.96 0.81C35.52 0.46 32.96 1.11 31 2.61C29.96 3.37 29.17 4.39 28.48 5.46C27.48 6.23 26.56 7.12 25.78 8.14C25.74 7.48 25.61 6.84 25.48 6.2C25.71 5.86 26.08 5.6 26.18 5.18C26.35 4.38 25.96 3.51 25.25 3.12C24.45 2.7 23.31 3.12 23.05 4.02C22.63 5.18 23.69 6.62 24.97 6.32C25.2 7.39 25.52 8.58 24.99 9.62C24.71 10.22 24.51 10.86 24.24 11.47C24.04 11.13 23.72 10.81 23.74 10.4C23.76 9.42 23.5 8.44 22.97 7.62C21.84 5.78 19.87 4.58 17.79 4.09C18.61 5.63 19.37 7.22 20.36 8.67C21.06 9.69 21.99 10.69 23.28 10.84C23.78 11.68 24.18 12.64 23.91 13.64C22.88 13.48 21.85 13.37 20.81 13.24C21.03 13.59 21.21 13.96 21.47 14.27C22.25 14.44 23.04 14.53 23.82 14.67C23.78 15.92 23.8 17.17 24.12 18.37C24.24 18.87 24.49 19.34 24.48 19.87C23.75 19.57 23.08 19.17 22.45 18.71C21.85 15.14 19.65 12.13 17.35 9.44C17.17 10.59 17.18 11.76 17.28 12.91C16.44 12.75 15.55 12.71 14.76 12.37C14.41 11.82 14.18 11.2 13.96 10.57C13.84 10.34 14 10.1 14.06 9.87C14.59 8.5 14.36 6.99 14.06 5.6C13.56 3.7 12.82 1.84 11.99 0.05C11.96 0.05 11.89 0.01 11.86 0C11.31 1.25 10.89 2.6 10.91 3.97C10.86 6.15 11.91 8.17 13.04 9.95C13.5 10.6 13.74 11.35 13.98 12.1C11.8 11.45 10.13 9.64 9.16 7.64C8.73 6.54 7.96 5.62 7 4.94C5.04 3.49 2.55 2.88 0.129999 2.98C1.29 4.24 2.47 5.51 3.9 6.46C5.2 7.34 6.77 7.69 8.32 7.86C8.66 7.86 8.9 8.11 9.04 8.4C9.67 9.62 10.54 10.7 11.6 11.58C11 11.46 10.4 11.36 9.88 11C7.66 9.65 4.88 9.64 2.43 10.3C1.6 10.53 0.71 10.68 0 11.2C1.56 12.38 3.55 13 5.52 12.88C7.08 12.82 8.57 12.31 10.02 11.8C11.29 11.94 12.52 12.28 13.69 12.78C14.89 13.28 16.16 13.54 17.43 13.75C17.83 15.53 18.63 17.35 20.16 18.43C20.78 18.89 21.56 19.07 22.28 19.27C23.04 19.67 23.76 20.15 24.55 20.49C25.32 20.81 25.62 21.67 26.15 22.27C25.61 22.31 25.07 22.37 24.55 22.44C23.87 21.51 22.42 21.56 21.72 22.42C21.04 23.18 21.4 24.54 22.36 24.88C23.56 25.38 25.13 24.25 24.73 22.91C25.4 22.79 26.08 22.76 26.75 22.88C28.35 24.5 30.45 25.6 32.62 26.26C35.12 26.98 37.82 27.28 40.42 26.9C40.44 26.34 40.17 25.8 39.86 25.35L39.85 25.37ZM29.67 20.67C29.3 19.77 29.27 18.77 29.2 17.81C29.18 16.47 29.18 15.09 29.47 13.77C29.57 15.47 29.69 17.17 29.77 18.87C29.8 19.47 29.77 20.09 29.67 20.69V20.67ZM34.27 7.82C32.57 8.89 30.59 9.49 28.61 9.78L28.58 9.6C30.52 9.13 32.35 8.34 34.28 7.82H34.27ZM31.43 3.56C32.77 2.76 34.21 2.06 35.75 1.7C35.05 2.22 34.2 2.54 33.45 2.98C32.13 3.65 30.88 4.44 29.53 5.01C30.07 4.41 30.76 4.01 31.43 3.57V3.56ZM23.83 4.42C23.33 4.08 23.93 3.64 24.31 3.55C24.68 3.45 25.01 3.67 25.31 3.85C24.76 3.85 24.24 4.03 23.84 4.42H23.83ZM21.29 7.77C20.64 6.9 19.87 6.14 19.15 5.34C20.92 6.44 22.45 8.09 23.18 10.07C22.45 9.39 21.92 8.53 21.28 7.77H21.29ZM12.41 6.64C12.07 5.14 11.86 3.58 12.01 2.04C12.46 4.42 13.08 6.77 13.36 9.18C12.88 8.41 12.66 7.51 12.42 6.64H12.41ZM4.55 5.3C3.69 4.77 2.81 4.3 2 3.73C4.23 4.33 6.37 5.46 8.02 7.09C6.78 6.65 5.67 5.94 4.54 5.29L4.55 5.3ZM3.61 11.55C3 11.51 2.38 11.45 1.78 11.28C4.08 11.11 6.42 11.08 8.72 11.38C7.05 11.74 5.32 11.68 3.62 11.55H3.61ZM19.17 14.93C18.67 13.79 18.2 12.63 18.02 11.39C18.59 12.59 19.12 13.82 19.8 14.97C20.37 16.02 21.05 17.02 21.48 18.15C20.41 17.33 19.75 16.1 19.18 14.92L19.17 14.93ZM22.31 23.33L22.01 23.03C22.41 22.41 23.21 22.23 23.84 22.55C23.28 22.75 22.71 22.91 22.3 23.35L22.31 23.33Z"
            fill="#B2BA21" />
    </g>
    <defs>
        <clipPath id="clip0_73_55">
            <rect width="40.421" height="27.0654" fill="white" />
        </clipPath>
    </defs>
</svg>