<svg aria-hidden="true" viewBox="0 0 103 148" fill="none" xmlns="http://www.w3.org/2000/svg">
    <g clip-path="url(#clip0_73_2)">
        <path
            d="M51.2231 8.52672C51.2231 8.52672 62.827 21.6419 76.1904 25.5841C82.6623 27.4932 88.6997 27.9859 93.2077 27.9859C98.0005 27.9859 101.055 27.4311 101.055 27.4311C101.055 27.4311 101.424 51.6867 101.424 69.2186C101.424 99.0368 85.8051 118.829 71.9161 132.104C59.5966 143.876 52.6576 146.552 51.245 147.008C51.245 147.008 42.9226 143.953 30.5228 132.104C16.6338 118.829 1 99.5115 1 69.2186C1 52.0846 1.38327 27.4311 1.38327 27.4311C1.38327 27.4311 4.44214 27.9859 9.2312 27.9859C13.7392 27.9859 19.7766 27.4932 26.2484 25.5841C39.6082 21.6419 51.2231 8.52672 51.2231 8.52672Z"
            fill="#A32136" />
        <path
            d="M51.2231 8.52672C51.2231 8.52672 62.8271 21.6419 76.1904 25.5841C82.6623 27.4931 88.6997 27.9859 93.2077 27.9859C98.0005 27.9859 101.055 27.4311 101.055 27.4311C101.055 27.4311 101.424 51.6867 101.424 69.2186C101.424 99.0368 85.8051 118.829 71.9161 132.104C59.5966 143.876 52.6576 146.552 51.245 147.008C51.245 147.008 42.9226 143.953 30.5228 132.104C16.6338 118.829 1 99.5115 1 69.2186C1 52.0846 1.38327 27.4311 1.38327 27.4311C1.38327 27.4311 4.44214 27.9859 9.2312 27.9859C13.7392 27.9859 19.7766 27.4931 26.2484 25.5841C39.6082 21.6419 51.2231 8.52672 51.2231 8.52672Z"
            stroke="#221E1F" stroke-width="1.985" />
        <path d="M20.6307 120.617H82.3045V70.1567H20.6307V120.617Z" fill="#221E1F" />
        <path
            d="M20.4849 59.4397C20.4849 59.4397 27.5297 48.0109 28.3218 37.0823C28.6357 32.7421 28.34 27.9275 28.8219 23.5692C29.4716 17.7435 34.3592 7.70908 34.3592 7.70908L68.0652 7.72002C68.0652 7.72002 72.9528 17.7581 73.6025 23.5801C74.0843 27.9385 73.7887 32.7531 74.1063 37.0932C74.8947 48.0219 81.9396 59.4507 81.9396 59.4507"
            fill="white" />
        <path
            d="M20.4849 59.4397C20.4849 59.4397 27.5297 48.011 28.3218 37.0823C28.6357 32.7421 28.34 27.9275 28.8219 23.5692C29.4716 17.7435 34.3592 7.70908 34.3592 7.70908L68.0652 7.72003C68.0652 7.72003 72.9528 17.7581 73.6025 23.5801C74.0843 27.9385 73.7887 32.7531 74.1063 37.0932C74.8947 48.0219 81.9396 59.4507 81.9396 59.4507L20.4849 59.4397Z"
            stroke="#221E1F" stroke-width="1.985" />
        <path d="M28.1064 129.962H73.8945V73.8945H28.1064V129.962Z" fill="#221E1F" />
        <path d="M68.5469 8.20184H68.0651L34.3628 8.19089H33.8773V5.25978H68.5469V7.72001" fill="#221E1F" />
        <path
            d="M69.0325 4.77795H33.3918V8.67636H34.3592L68.0651 8.68731H69.0325V4.77795ZM68.0651 5.74525V7.72001L34.3592 7.70907V5.74525H68.0651Z"
            fill="#221E1F" />
        <path d="M70.8101 4.09172H31.6143L30.2272 1H72.1972L70.8101 4.09172Z" fill="#221E1F" stroke="#221E1F"
            stroke-width="1.036" />
        <path d="M34.3737 5.74526L32.6837 4.09172H69.7405L68.076 5.74526H34.3737Z" fill="#221E1F" stroke="#221E1F"
            stroke-width="1.036" />
        <path
            d="M20.5542 70.6896C20.2183 70.1896 19.0137 68.4849 17.1084 66.5759C14.7394 64.2105 11.6513 62.9147 10.987 62.6556L8.75671 57.4539H93.6675L91.4373 62.6629C90.7876 62.9366 87.7288 64.2981 85.4584 66.5686C83.4215 68.6053 82.4834 70.1238 82.2024 70.6203"
            fill="#221E1F" />
        <path
            d="M93.1967 57.7643H9.22753L11.2205 62.4183C12.0966 62.7724 15.0386 64.0718 17.3273 66.3605C19.1013 68.1381 20.2803 69.7442 20.7184 70.3794L82.0234 70.31C82.4031 69.6785 83.3667 68.2221 85.2393 66.3495C87.4331 64.1557 90.3459 62.7979 91.2 62.4256L93.1967 57.7643ZM94.1347 57.1473L91.6709 62.9001C91.6709 62.9001 88.1594 64.3054 85.6773 66.7875C83.2353 69.2259 82.3884 70.9305 82.3884 70.9305L20.3899 70.9998C20.3899 70.9998 19.1123 69.0215 16.8893 66.7984C14.294 64.2032 10.7533 62.9001 10.7533 62.9001L8.28943 57.1473H94.1347Z"
            fill="#221E1F" />
        <path d="M75.5845 94.6309H26.8397V91.1818H75.5845V94.2038" fill="white" />
        <path d="M76.0152 90.7511H26.4127V95.0617H76.0152V90.7511ZM75.1575 94.2038H27.2668V91.6089H75.1575V94.2038Z"
            fill="#221E1F" />
        <path
            d="M70.5035 35.9872C70.237 32.3296 70.4853 28.2743 70.0764 24.5985C69.6968 21.16 67.5577 16.236 66.313 13.5932C66.0028 13.8414 65.6122 13.9947 65.1815 13.9947C64.1594 13.9947 63.3272 13.1661 63.3272 12.1404C63.3272 12.009 63.3454 11.8812 63.371 11.7571L39.0169 11.7498C39.0497 11.8849 39.068 12.0236 39.068 12.166C39.068 13.1881 38.2394 14.0166 37.2173 14.0166C36.7903 14.0166 36.407 13.8669 36.0931 13.626C34.8447 16.276 32.7276 21.1673 32.348 24.5913C31.9392 28.267 32.1873 32.3223 31.9245 35.9799C31.2565 45.1856 26.5588 54.8185 26.5588 54.8185L75.8657 54.8259C75.8657 54.8259 71.1678 45.1967 70.5035 35.9872Z"
            fill="#221E1F" />
        <path
            d="M62.2321 33.4649C62.2321 27.3544 57.2825 22.4047 51.1793 22.4047C45.0688 22.4047 40.1192 27.3544 40.1192 33.4649H37.7247L39.2248 37.2575H40.7871L44.9776 47.9926H42.667V50.7595H59.8631V47.9926H57.3956L61.4327 37.3086H63.1994L64.6997 33.4977"
            fill="white" />
        <path
            d="M62.2321 33.4649C62.2321 27.3544 57.2825 22.4047 51.1793 22.4047C45.0688 22.4047 40.1192 27.3544 40.1192 33.4649H37.7247L39.2248 37.2575H40.7871L44.9776 47.9926H42.667V50.7595H59.8631V47.9926H57.3956L61.4327 37.3086H63.1994L64.6997 33.4977L62.2321 33.4649Z"
            stroke="white" stroke-width="0.402" />
        <path
            d="M58.8046 33.4649C58.8046 37.6772 55.3916 41.0938 51.1793 41.0938C46.9597 41.0938 43.5467 37.6772 43.5467 33.4649C43.5467 29.2489 46.9597 25.8323 51.1793 25.8323C55.3916 25.8323 58.8046 29.2489 58.8046 33.4649Z"
            fill="#221E1F" />
        <path d="M30.2272 1L31.6143 4.09172H32.6728L34.3592 5.74526H68.0652L69.7297 4.09172H70.8101L72.1972 1"
            fill="white" />
        <path d="M30.2272 1L31.6143 4.09172H32.6728L34.3592 5.74526H68.0652L69.7297 4.09172H70.8101L72.1972 1H30.2272Z"
            stroke="#221E1F" stroke-width="1.985" />
        <path d="M91.0577 61.9693H11.3629L9.69476 58.0745H92.7294L91.0577 61.9693Z" fill="white" />
        <path
            d="M91.3241 59.0017H11.1001L11.9761 61.0458H90.4481L91.3241 59.0017ZM94.1347 57.1473L91.6709 62.9001H10.7533L8.28943 57.1473"
            fill="#221E1F" />
        <path
            d="M72.6205 91.138H29.8439V90.6708C29.8439 86.2249 33.1838 82.6075 37.2829 82.6075C40.4769 82.6075 43.2036 84.7977 44.2585 87.8674C45.3134 84.7977 48.0437 82.6075 51.234 82.6075C54.4243 82.6075 57.1546 84.7977 58.2095 87.8674C59.2608 84.7977 61.9911 82.6075 65.1814 82.6075C69.2806 82.6075 72.6205 86.2248 72.6205 90.6744"
            fill="white" />
        <path
            d="M51.2341 82.1439C48.2153 82.1439 45.5908 83.9764 44.2586 86.6666C42.9262 83.9764 40.3017 82.1439 37.283 82.1439C32.9283 82.1439 29.384 85.9694 29.384 90.6708V91.5979H30.3075L72.157 91.6016H73.0841V90.6744C73.0841 85.973 69.5398 82.1476 65.1815 82.1476C62.1664 82.1476 59.5382 83.98 58.2095 86.6666C56.8773 83.9764 54.2492 82.1439 51.2341 82.1439ZM51.2341 83.0711C55.085 83.0711 58.2095 86.4767 58.2095 90.6708C58.2095 86.4767 61.3305 83.0711 65.1815 83.0711C69.0324 83.0711 72.157 86.4767 72.157 90.6744L30.3075 90.6708C30.3075 86.4767 33.432 83.0711 37.283 83.0711C41.1376 83.0711 44.2586 86.4767 44.2586 90.6708C44.2586 86.4767 47.3794 83.0711 51.2341 83.0711Z"
            fill="#221E1F" />
        <path
            d="M32.6289 115.225V91.065C32.6289 91.065 32.6399 85.8197 37.2355 85.8197C41.8311 85.8197 41.8311 91.065 41.8311 91.065V115.225"
            fill="white" />
        <path
            d="M32.6289 115.225V91.065C32.6289 91.065 32.6399 85.8197 37.2355 85.8197C41.8311 85.8197 41.8311 91.065 41.8311 91.065V115.225H32.6289Z"
            stroke="#221E1F" stroke-width="0.992" />
        <path d="M38.2539 85.7832H36.2061L35.7426 80.6693H38.7175L38.2539 85.7832Z" fill="white" stroke="#221E1F"
            stroke-width="0.992" />
        <path
            d="M46.6457 115.225V91.065C46.6457 91.065 46.6531 85.8197 51.2523 85.8197C55.8479 85.8197 55.8479 91.065 55.8479 91.065V115.225"
            fill="white" />
        <path
            d="M46.6457 115.225V91.065C46.6457 91.065 46.6531 85.8197 51.2523 85.8197C55.8479 85.8197 55.8479 91.065 55.8479 91.065V115.225H46.6457Z"
            stroke="#221E1F" stroke-width="0.992" />
        <path d="M52.2707 85.7832H50.223L49.7594 80.6693H52.7343L52.2707 85.7832Z" fill="white" stroke="#221E1F"
            stroke-width="0.992" />
        <path
            d="M60.6624 115.225V91.065C60.6624 91.065 60.6734 85.8197 65.269 85.8197C69.8646 85.8197 69.8646 91.065 69.8646 91.065V115.225"
            fill="white" />
        <path
            d="M60.6624 115.225V91.065C60.6624 91.065 60.6734 85.8197 65.269 85.8197C69.8646 85.8197 69.8646 91.065 69.8646 91.065V115.225H60.6624Z"
            stroke="#221E1F" stroke-width="0.992" />
        <path d="M66.2838 85.7832H64.2397L63.7761 80.6693H66.751L66.2838 85.7832Z" fill="white" stroke="#221E1F"
            stroke-width="0.992" />
    </g>
    <defs>
        <clipPath id="clip0_73_2">
            <rect width="102.424" height="148.008" fill="white" />
        </clipPath>
    </defs>
</svg>