<svg width="110" height="150" viewBox="0 0 110 150" fill="none" xmlns="http://www.w3.org/2000/svg">
    <g clip-path="url(#clip0_5_2)">
        <path d="M82.8047 141.859C82.8047 141.859 89.0703 140.988 94.1562 139.777C98.6797 138.699 103.027 137.195 103.027 137.195L99.793 130.938L102.633 123.156C102.633 123.156 97.2422 124.695 92.5039 125.699C87.582 126.742 82.8945 127.16 82.8945 127.16" fill="white" />
        <path d="M82.8047 141.859C82.8047 141.859 89.0703 140.988 94.1563 139.777C98.6797 138.699 103.027 137.195 103.027 137.195L99.793 130.937L102.633 123.156C102.633 123.156 97.2422 124.695 92.5039 125.699C87.582 126.742 82.8945 127.16 82.8945 127.16L82.8047 141.859Z" stroke="#221E1F" stroke-width="1.842" />
        <path d="M26.6484 141.859C26.6484 141.859 20.3828 140.988 15.2969 139.777C10.7734 138.699 6.42578 137.195 6.42578 137.195L9.66016 130.938L6.82031 123.156C6.82031 123.156 12.2109 124.695 16.9492 125.699C21.8711 126.742 26.5586 127.16 26.5586 127.16" fill="white" />
        <path d="M26.6484 141.859C26.6484 141.859 20.3828 140.988 15.2969 139.777C10.7734 138.699 6.42578 137.195 6.42578 137.195L9.66016 130.937L6.82031 123.156C6.82031 123.156 12.2109 124.695 16.9492 125.699C21.8711 126.742 26.5586 127.16 26.5586 127.16L26.6484 141.859Z" stroke="#221E1F" stroke-width="1.842" />
        <path d="M54.7383 9.04688C54.7383 9.04688 67.1562 23.082 81.457 27.3008C88.3828 29.3438 94.8437 29.8711 99.668 29.8711C104.797 29.8711 108.066 29.2773 108.066 29.2773C108.066 29.2773 108.461 55.2344 108.461 73.9961C108.461 105.906 91.7461 127.086 76.8828 141.293C63.6992 153.891 56.2734 156.754 54.7617 157.242C54.7617 157.242 45.8555 153.973 32.5859 141.293C17.7227 127.086 0.992188 106.414 0.992188 73.9961C0.992188 55.6602 1.40234 29.2773 1.40234 29.2773C1.40234 29.2773 4.67578 29.8711 9.80078 29.8711C14.625 29.8711 21.0859 29.3438 28.0117 27.3008C42.3086 23.082 54.7383 9.04688 54.7383 9.04688Z" fill="#A32136" />
        <path d="M54.7383 9.04687C54.7383 9.04687 67.1563 23.082 81.457 27.3008C88.3828 29.3437 94.8438 29.8711 99.668 29.8711C104.797 29.8711 108.066 29.2773 108.066 29.2773C108.066 29.2773 108.461 55.2344 108.461 73.9961C108.461 105.906 91.7461 127.086 76.8828 141.293C63.6992 153.891 56.2734 156.754 54.7617 157.242C54.7617 157.242 45.8555 153.973 32.5859 141.293C17.7227 127.086 0.992188 106.414 0.992188 73.9961C0.992188 55.6602 1.40234 29.2773 1.40234 29.2773C1.40234 29.2773 4.67578 29.8711 9.80078 29.8711C14.625 29.8711 21.0859 29.3437 28.0117 27.3008C42.3086 23.082 54.7383 9.04687 54.7383 9.04687Z" stroke="#221E1F" stroke-width="1.985" />
        <path d="M21.5352 137.105H87.918V74.8672H21.5352V137.105Z" fill="#221E1F" />
        <path d="M21.8438 63.5312C21.8438 63.5312 29.3828 51.3008 30.2305 39.6055C30.5664 34.9609 30.25 29.8086 30.7656 25.1445C31.4609 18.9102 36.6914 8.17188 36.6914 8.17188L72.7617 8.18359C72.7617 8.18359 77.9922 18.9258 78.6875 25.1562C79.2031 29.8203 78.8867 34.9727 79.2266 39.6172C80.0703 51.3125 87.6094 63.543 87.6094 63.543" fill="white" />
        <path d="M21.8438 63.5312C21.8438 63.5312 29.3828 51.3008 30.2305 39.6055C30.5664 34.9609 30.25 29.8086 30.7656 25.1445C31.4609 18.9102 36.6914 8.17187 36.6914 8.17187L72.7617 8.18359C72.7617 8.18359 77.9922 18.9258 78.6875 25.1562C79.2031 29.8203 78.8867 34.9727 79.2266 39.6172C80.0703 51.3125 87.6094 63.543 87.6094 63.543L21.8438 63.5312Z" stroke="#221E1F" stroke-width="1.985" />
        <path d="M30.2422 143.766H79.2109V78.9805H30.2422V143.766Z" fill="#221E1F" />
        <path d="M78.0625 80.1328H31.3906V142.617H78.0625V80.1328ZM80.3633 144.918H29.0898V77.8281H80.3633V144.918Z" fill="white" />
        <path d="M73.2773 8.69922H72.7617L36.6953 8.6875H36.1758V5.55078H73.2773V8.18359" fill="#221E1F" />
        <path d="M73.7969 5.03516H35.6562V9.20703H36.6914L72.7617 9.21875H73.7969V5.03516ZM72.7617 6.07031V8.18359L36.6914 8.17188V6.07031H72.7617Z" fill="#221E1F" />
        <path d="M75.6992 4.30078H33.7539L32.2695 0.992187H77.1836L75.6992 4.30078Z" fill="#221E1F" stroke="#221E1F" stroke-width="1.036" />
        <path d="M36.707 6.07031L34.8984 4.30078H74.5547L72.7734 6.07031H36.707Z" fill="#221E1F" stroke="#221E1F" stroke-width="1.036" />
        <path d="M21.918 75.5703C21.5586 75.0352 20.2695 73.2109 18.2305 71.168C15.6953 68.6367 12.3906 67.25 11.6797 66.9727L9.29297 61.4062H100.16L97.7734 66.9805C97.0781 67.2734 93.8047 68.7305 91.375 71.1602C89.1953 73.3398 88.1914 74.9648 87.8906 75.4961" fill="#221E1F" />
        <path d="M99.6562 61.7383H9.79688L11.9297 66.7188C12.8672 67.0977 16.0156 68.4883 18.4648 70.9375C20.3633 72.8398 21.625 74.5586 22.0938 75.2383L87.6992 75.1641C88.1055 74.4883 89.1367 72.9297 91.1406 70.9258C93.4883 68.5781 96.6055 67.125 97.5195 66.7266L99.6562 61.7383ZM100.66 61.0781L98.0234 67.2344C98.0234 67.2344 94.2656 68.7383 91.6094 71.3945C88.9961 74.0039 88.0898 75.8281 88.0898 75.8281L21.7422 75.9023C21.7422 75.9023 20.375 73.7852 17.9961 71.4062C15.2187 68.6289 11.4297 67.2344 11.4297 67.2344L8.79297 61.0781H100.66Z" fill="#221E1F" />
        <path d="M80.8086 101.191H28.6445V97.5H80.8086V100.734" fill="white" />
        <path d="M81.2695 97.0391H28.1875V101.652H81.2695V97.0391ZM80.3516 100.734H29.1016V97.957H80.3516V100.734Z" fill="#221E1F" />
        <path d="M75.3711 38.4336C75.0859 34.5195 75.3516 30.1797 74.9141 26.2461C74.5078 22.5664 72.2187 17.2969 70.8867 14.4688C70.5547 14.7344 70.1367 14.8984 69.6758 14.8984C68.582 14.8984 67.6914 14.0117 67.6914 12.9141C67.6914 12.7734 67.7109 12.6367 67.7383 12.5039L41.6758 12.4961C41.7109 12.6406 41.7305 12.7891 41.7305 12.9414C41.7305 14.0352 40.8438 14.9219 39.75 14.9219C39.293 14.9219 38.8828 14.7617 38.5469 14.5039C37.2109 17.3398 34.9453 22.5742 34.5391 26.2383C34.1016 30.1719 34.3672 34.5117 34.0859 38.4258C33.3711 48.2773 28.3438 58.5859 28.3438 58.5859L81.1094 58.5938C81.1094 58.5938 76.082 48.2891 75.3711 38.4336Z" fill="#221E1F" />
        <path d="M66.5195 35.7344C66.5195 29.1953 61.2227 23.8984 54.6914 23.8984C48.1523 23.8984 42.8555 29.1953 42.8555 35.7344H40.293L41.8984 39.793H43.5703L48.0547 51.2812H45.582V54.2422H63.9844V51.2812H61.3438L65.6641 39.8477H67.5547L69.1602 35.7695" fill="white" />
        <path d="M66.5195 35.7344C66.5195 29.1953 61.2227 23.8984 54.6914 23.8984C48.1523 23.8984 42.8555 29.1953 42.8555 35.7344H40.293L41.8984 39.793H43.5703L48.0547 51.2812H45.582V54.2422H63.9844V51.2812H61.3438L65.6641 39.8477H67.5547L69.1602 35.7695L66.5195 35.7344Z" stroke="white" stroke-width="0.402" />
        <path d="M62.8516 35.7344C62.8516 40.2422 59.1992 43.8984 54.6914 43.8984C50.1758 43.8984 46.5234 40.2422 46.5234 35.7344C46.5234 31.2227 50.1758 27.5664 54.6914 27.5664C59.1992 27.5664 62.8516 31.2227 62.8516 35.7344Z" fill="#221E1F" />
        <path d="M32.2695 0.992188L33.7539 4.30078H34.8867L36.6914 6.07031H72.7617L74.543 4.30078H75.6992L77.1836 0.992188" fill="white" />
        <path d="M32.2695 0.992187L33.7539 4.30078H34.8867L36.6914 6.07031H72.7617L74.543 4.30078H75.6992L77.1836 0.992187H32.2695Z" stroke="#221E1F" stroke-width="1.985" />
        <path d="M97.3672 66.2383H12.082L10.2969 62.0703H99.1562L97.3672 66.2383Z" fill="white" />
        <path d="M97.6523 63.0625H11.8008L12.7383 65.25H96.7148L97.6523 63.0625ZM100.66 61.0781L98.0234 67.2344H11.4297L8.79297 61.0781" fill="#221E1F" />
        <path d="M77.6367 97.4531H31.8594V96.9531C31.8594 92.1953 35.4336 88.3242 39.8203 88.3242C43.2383 88.3242 46.1563 90.668 47.2852 93.9531C48.4141 90.668 51.3359 88.3242 54.75 88.3242C58.1641 88.3242 61.0859 90.668 62.2148 93.9531C63.3398 90.668 66.2617 88.3242 69.6758 88.3242C74.0625 88.3242 77.6367 92.1953 77.6367 96.957" fill="white" />
        <path d="M54.75 87.8281C51.5195 87.8281 48.7109 89.7891 47.2852 92.668C45.8594 89.7891 43.0508 87.8281 39.8203 87.8281C35.1602 87.8281 31.3672 91.9219 31.3672 96.9531V97.9453H32.3555L77.1406 97.9492H78.1328V96.957C78.1328 91.9258 74.3398 87.832 69.6758 87.832C66.4492 87.832 63.6367 89.793 62.2148 92.668C60.7891 89.7891 57.9766 87.8281 54.75 87.8281ZM54.75 88.8203C58.8711 88.8203 62.2148 92.4648 62.2148 96.9531C62.2148 92.4648 65.5547 88.8203 69.6758 88.8203C73.7969 88.8203 77.1406 92.4648 77.1406 96.957L32.3555 96.9531C32.3555 92.4648 35.6992 88.8203 39.8203 88.8203C43.9453 88.8203 47.2852 92.4648 47.2852 96.9531C47.2852 92.4648 50.625 88.8203 54.75 88.8203Z" fill="#221E1F" />
        <path d="M34.8398 123.23V97.375C34.8398 97.375 34.8516 91.7617 39.7695 91.7617C44.6875 91.7617 44.6875 97.375 44.6875 97.375V123.23" fill="white" />
        <path d="M34.8398 123.23V97.375C34.8398 97.375 34.8516 91.7617 39.7695 91.7617C44.6875 91.7617 44.6875 97.375 44.6875 97.375V123.23H34.8398Z" stroke="#221E1F" stroke-width="0.992" />
        <path d="M40.8594 91.7227H38.668L38.1719 86.25H41.3555L40.8594 91.7227Z" fill="white" stroke="#221E1F" stroke-width="0.992" />
        <path d="M49.8398 123.23V97.375C49.8398 97.375 49.8477 91.7617 54.7695 91.7617C59.6875 91.7617 59.6875 97.375 59.6875 97.375V123.23" fill="white" />
        <path d="M49.8398 123.23V97.375C49.8398 97.375 49.8477 91.7617 54.7695 91.7617C59.6875 91.7617 59.6875 97.375 59.6875 97.375V123.23H49.8398Z" stroke="#221E1F" stroke-width="0.992" />
        <path d="M55.8594 91.7227H53.668L53.1719 86.25H56.3555L55.8594 91.7227Z" fill="white" stroke="#221E1F" stroke-width="0.992" />
        <path d="M64.8398 123.23V97.375C64.8398 97.375 64.8516 91.7617 69.7695 91.7617C74.6875 91.7617 74.6875 97.375 74.6875 97.375V123.23" fill="white" />
        <path d="M64.8398 123.23V97.375C64.8398 97.375 64.8516 91.7617 69.7695 91.7617C74.6875 91.7617 74.6875 97.375 74.6875 97.375V123.23H64.8398Z" stroke="#221E1F" stroke-width="0.992" />
        <path d="M70.8555 91.7227H68.668L68.1719 86.25H71.3555L70.8555 91.7227Z" fill="white" stroke="#221E1F" stroke-width="0.992" />
        <path d="M20.875 130.797V145.648C20.875 145.648 34.5117 148.594 54.6016 148.594C74.6953 148.594 88.3047 145.648 88.3047 145.648L88.332 130.797C88.332 130.797 74.7695 133.543 54.3711 133.543C33.9727 133.543 20.875 130.797 20.875 130.797Z" fill="white" />
        <path d="M20.875 130.797V145.648C20.875 145.648 34.5117 148.594 54.6016 148.594C74.6953 148.594 88.3047 145.648 88.3047 145.648L88.332 130.797C88.332 130.797 74.7695 133.543 54.3711 133.543C33.9727 133.543 20.875 130.797 20.875 130.797Z" stroke="#221E1F" stroke-width="1.842" stroke-linecap="round" />
        <path d="M45.4141 145.48C44.9141 145.414 44.5859 145.375 44.4766 145.367C44.0938 145.309 43.5469 145.262 43.2227 145.234L43.0898 145.223C42.7773 145.199 41.875 145.129 41.4336 145.121C41.3281 145.113 40.9141 145.102 40.6016 145.094C40.4492 145.086 40.3672 145.023 40.3789 144.898L40.4063 144.551L40.5625 144.473C40.5859 144.469 41 144.469 41 144.469C41.9844 144.469 42.2305 144.352 42.293 144.285C42.4297 144.145 42.457 143.84 42.4922 143.379L42.8203 139.309C42.8438 139 42.918 138.062 42.7813 137.762C42.7461 137.684 42.625 137.633 42.4648 137.633C42.3984 137.629 42.3359 137.625 42.2695 137.625C42.1641 137.625 41.6797 137.641 41.5391 137.641C41.3281 137.508 41.332 137.324 41.3477 137.113L41.3555 137.008L41.4609 137C42.4023 136.906 42.9063 136.809 43.5938 136.453L43.7188 136.391C43.8438 136.328 43.957 136.266 44.0586 136.266C44.1719 136.277 44.4492 136.293 44.4492 136.293L43.8711 143.473C43.832 143.977 43.832 144.281 43.9453 144.434C44.0859 144.664 44.9688 144.805 45.2617 144.855C45.3672 144.871 45.4414 144.883 45.4688 144.891L45.5664 144.918L45.6094 145.066L45.582 145.43L45.4219 145.48" fill="#221E1F" />
        <path d="M50.6445 137.383C49.9141 137.383 49.5898 138.164 49.5781 138.582C49.5586 139.348 50.3047 139.883 50.9648 140.359L51.0156 140.395C51.5781 139.941 51.8164 139.477 51.832 138.805C51.8477 138.133 51.5508 137.402 50.668 137.383L50.6445 137.258V137.383ZM50.3242 141.516C49.625 141.863 49.2148 142.539 49.1953 143.387C49.1641 144.57 49.9961 145.223 50.6094 145.238C51.4258 145.238 51.9883 144.598 52.0117 143.68C52.0391 142.684 51.332 142.145 50.3242 141.516ZM50.5234 145.891C48.7969 145.848 47.7461 144.941 47.7813 143.527C47.8047 142.555 48.6094 141.562 49.6875 141.137C48.9844 140.656 48.2148 140.039 48.2422 138.875C48.2773 137.555 49.2227 136.73 50.7148 136.73C51.9375 136.766 53.1406 137.41 53.1055 138.75C53.0781 139.848 52.0742 140.52 51.5938 140.777C52.6836 141.48 53.3906 142.215 53.3594 143.395C53.3281 144.605 52.3555 145.891 50.6094 145.891" fill="#221E1F" />
        <path d="M57.6328 145.91C57.3477 145.91 57.1953 145.871 57.1016 145.773C57.0156 145.684 57.0117 145.57 57.0117 145.492C57.043 144.473 57.8242 142.766 58.4531 141.395C58.8281 140.586 59.6289 138.922 60.1641 138.043L58.3438 138.09C57.7344 138.102 57.0508 138.113 56.8203 138.285C56.5781 138.465 56.5508 138.562 56.4922 138.758C56.4687 138.84 56.4453 138.93 56.4023 139.039C56.3242 139.246 56.1133 139.25 55.8203 139.254L55.668 139.258L55.5977 139.113L55.9492 136.945L61.25 136.809L61.2695 137.637C59.7617 139.773 58.6055 143.051 58.4883 145.5C58.4766 145.828 58.2109 145.898 57.7266 145.91" fill="#221E1F" />
        <path d="M61.3711 136.68L61.1211 136.688L56.0469 136.816L55.8398 136.824L55.8086 137.027L55.4727 139.094L55.4258 139.391L55.7266 139.383L55.8203 139.379C56.125 139.375 56.4141 139.367 56.5195 139.082C56.5625 138.969 56.5898 138.875 56.6133 138.793C56.668 138.609 56.6875 138.539 56.8945 138.383C57.0938 138.238 57.8086 138.223 58.2852 138.215H58.3438L59.9414 138.172C59.4102 139.09 58.6875 140.586 58.3398 141.344C57.707 142.723 56.918 144.441 56.8906 145.492C56.8867 145.547 56.8789 145.723 57.0117 145.859C57.1602 146.016 57.3984 146.035 57.6328 146.035H57.7305C58.0547 146.027 58.5938 146.012 58.6133 145.504C58.7266 143.078 59.8789 139.832 61.3477 137.785L61.3984 137.719L61.3945 137.633L61.3789 136.93L61.3711 136.68ZM61.1289 136.938L61.1445 137.641C59.668 139.695 58.4805 142.992 58.3633 145.492C58.3555 145.684 58.25 145.77 57.7227 145.785C57.6914 145.785 57.6602 145.785 57.6328 145.785C57.2266 145.785 57.1289 145.703 57.1406 145.5C57.168 144.504 57.9531 142.785 58.5664 141.449C58.9961 140.512 59.8906 138.68 60.3945 137.91L58.3398 137.965C57.7305 137.977 57.0156 137.98 56.7461 138.184C56.3672 138.469 56.4375 138.602 56.2852 138.996C56.2305 139.137 56.0547 139.125 55.7188 139.133L56.0547 137.066L61.1289 136.938Z" fill="#221E1F" />
        <path d="M64.3281 145.465L64.2773 145.297L64.25 144.949L64.3945 144.848C64.4258 144.84 64.5039 144.824 64.6172 144.809C64.9414 144.758 65.9336 144.609 66.0703 144.387C66.1836 144.223 66.1602 143.918 66.1211 143.461L65.793 139.391C65.7695 139.082 65.6992 138.148 65.5078 137.867C65.4727 137.816 65.3906 137.781 65.2812 137.781C65.2461 137.781 65.2148 137.785 65.1797 137.793C65.0156 137.805 64.8438 137.84 64.6602 137.875C64.5352 137.902 64.4023 137.926 64.2656 137.949C64.0352 137.855 64.0117 137.672 63.9922 137.461L63.9844 137.355L64.0859 137.328C65.0977 137.059 65.5273 136.867 66.1016 136.449L66.2109 136.371C66.332 136.281 66.4453 136.195 66.5508 136.188L66.9219 136.16L67.4961 143.336C67.5391 143.84 67.5859 144.137 67.7227 144.273C67.8086 144.371 68.0977 144.477 69.0312 144.477C69.0312 144.477 69.2773 144.477 69.3008 144.48L69.4023 144.492L69.4727 144.625L69.5 145L69.3398 145.07C68.8398 145.082 68.5117 145.098 68.4023 145.105C67.9961 145.109 67.4258 145.156 67.1055 145.18L66.8008 145.203C66.3984 145.238 65.7187 145.297 65.3555 145.352C65.2656 145.355 64.9922 145.395 64.7305 145.43L64.4453 145.465" fill="#221E1F" />
    </g>
    <defs>
        <clipPath id="clip0_5_2">
            <rect width="110" height="150" fill="white" />
        </clipPath>
    </defs>
</svg>